<svg fill="none" height="96" viewBox="0 0 96 96" width="96" xmlns="http://www.w3.org/2000/svg"><rect fill="#ffd60a" height="96" rx="48" width="96"/><path clip-rule="evenodd" d="m32.0449 30.113c4.9137-4.3661 10.7406-6.5657 17.431-6.5657 8.7938 0 15.1995 5.6239 19.5041 12.9306 4.3043 7.3061 6.5475 16.3518 7.0119 23.3525.0431.589-.0864 1.1777-.3731 1.694l-.0014.0031-.0017.0028c-4.1115 7.0634-13.4442 10.9193-26.1377 10.9197-9.1152.1197-17.8333-3.7237-23.8938-10.5333-.7212-.8018-.9377-1.9376-.5618-2.9484.8128-2.1878 2.3356-5.8373 4.3576-8.9495 1.0108-1.5557 2.155-2.9909 3.4088-4.0423 1.2533-1.0509 2.6398-1.7375 4.127-1.7456h.0018c1.4982 0 2.7932.5971 3.9159 1.404 1.0977.789 2.0526 1.7952 2.8845 2.6717l.0506.0536.0028.0028c.4767.5285.9822 1.03 1.5143 1.5025 2.2672-2.9136 4.1643-6.0979 5.6473-9.4797l.0045-.0106.0056-.0103c.7193-1.3665 2.3839-1.9289 3.7846-1.2786s2.045 2.2848 1.4654 3.7162l-.0031.0078-.0035.0076c-3.0324 6.4967-5.3753 9.7815-7.1176 11.444-.874.834-1.6038 1.267-2.201 1.4878-.6018.223-1.049.223-1.3259.223-1.2701 0-2.3534-.49-3.3171-1.1869-.9448-.6832-1.7952-1.5806-2.6049-2.4349l-.0343-.0361c-.3718-.3944-.9351-.9912-1.4774-1.4889-.2716-.2495-.5304-.4669-.7518-.6198-.1108-.0767-.2055-.1327-.2826-.168-.0382-.0179-.0686-.0287-.0916-.0354-.0055-.0014-.0104-.0024-.0146-.0035-.091.0242-.2195.0868-.3867.2114-.1859.1386-.3981.3371-.6323.5947-.4683.5148-1.0023 1.24-1.5654 2.1217-1.0944 1.7132-2.2795 3.9879-3.2846 6.3812 4.8813 4.8181 11.5071 7.4592 18.3706 7.316h.0031.0035c10.0531 0 17.4563-2.7268 20.6668-7.3279-.5712-6.3445-2.6138-13.8358-6.0781-19.7442-3.4891-5.951-8.3727-10.2243-14.5887-10.2243-10.6171 0-18.6722 7.4063-23.902 22.1764l-.0033.0091-.0038.0091c-.5973 1.4105-2.189 2.1126-3.6333 1.6027-1.4443-.5103-2.2422-2.0563-1.8214-3.5287l.0028-.0098.0033-.0095c3.0376-8.5963 7.0193-15.1038 11.9267-19.4641z" fill="#0b1215" fill-rule="evenodd"/></svg>
