<svg fill="none" height="96" viewBox="0 0 96 96" width="96" xmlns="http://www.w3.org/2000/svg"><path d="m47.9853 50.8812c-.9016 0-1.8032-.4018-2.7048-1.2054l-29.4585-26.0482c1.5484-.9604 3.4887-1.4406 5.8211-1.4406h52.6844c2.352 0 4.2923.4802 5.8211 1.4406l-29.4585 26.0482c-.882.8036-1.7836 1.2054-2.7048 1.2054zm-35.2503 17.728c-.2352-.5684-.4214-1.2054-.5586-1.911-.1176-.7056-.1764-1.5189-.1764-2.4401v-32.5162c0-.9996.0686-1.862.2058-2.5871.1568-.7448.3234-1.3034.4998-1.6758l21.8734 19.345zm8.1731 5.2038c-1.078 0-2.0384-.1176-2.8812-.3528-.8427-.2156-1.5581-.5194-2.1461-.9114l22.432-22.4614 4.0277 3.5867c.9212.8036 1.8424 1.4014 2.7636 1.7934s1.8816.588 2.8812.588 1.96-.196 2.8812-.588c.9408-.392 1.8718-.9898 2.793-1.7934l4.0277-3.5867 22.432 22.4614c-.588.392-1.3034.6958-2.1462.9114-.8427.2352-1.8031.3528-2.8811.3528zm62.3569-5.2038-21.844-21.7852 21.8734-19.345c.1568.3724.3136.931.4704 1.6758.1568.7251.2352 1.5875.2352 2.5871v32.5162c0 .9212-.0686 1.7345-.2058 2.4401s-.3136 1.3426-.5292 1.911z" fill="#0b1215"/></svg>