<?xml version="1.0" encoding="UTF-8"?>
<!-- Created with Inkscape (http://www.inkscape.org/) -->
<svg width="195.58mm" height="204.75mm" version="1.1" viewBox="0 0 195.58 204.75" xmlns="http://www.w3.org/2000/svg">
 <ellipse cx="96.951" cy="104.31" rx="92.809" ry="91.903" fill="#490483" fill-opacity=".98431"/>
 <path d="m102.59 204.1c-0.50877-1.3258-0.35868-1.6679 0.26284-0.59911 0.30774 0.52921 0.44846 1.0733 0.31272 1.209-0.13575 0.13574-0.39475-0.13871-0.57556-0.6099zm1.7802 4e-3c0-0.42586-0.26263-0.7743-0.58364-0.7743-0.32099 0-0.43693-0.3823-0.25763-0.84955 0.22723-0.59215 0.0978-0.76199-0.42703-0.56058-0.57485 0.22059-0.73281-0.15916-0.6676-1.6049 0.0662-1.4676-0.13087-1.9256-0.87545-2.0349-0.6958-0.10212-0.8758 0.10228-0.65251 0.74096 0.16959 0.4851-0.40518 0.10718-1.2773-0.83983-0.87209-0.94699-1.5856-1.4883-1.5856-1.2028s-0.35588 0.38244-0.79084 0.21553c-0.45859-0.17598-0.79085-9e-3 -0.79085 0.39747 0 0.38725-0.36039 0.18642-0.80528-0.44874-0.74134-1.0584-2.7258-1.1609-2.0746-0.10717 0.1526 0.24692 0.62575 0.31531 1.0514 0.15196s0.76555-0.0937 0.75527 0.15483c-0.0321 0.77656-1.5246 3.124-1.5443 2.429-0.0103-0.36248-0.26994-0.65904-0.57703-0.65904s-0.42185 0.22086-0.25502 0.4908c0.58202 0.94171-0.84247 1.1872-1.8097 0.3119-0.91399-0.82715-0.99046-0.82214-1.2237 0.0802-0.22271 0.86162-0.25603 0.85198-0.31801-0.092-0.04308-0.65621-0.21553-0.82759-0.45658-0.45376-0.28061 0.43515-0.5747 0.39883-1.0672-0.13181-0.55495-0.59795-0.55495-0.7347 0-0.74448 0.37391-7e-3 1.0556-0.77766 1.5149-1.7135 0.64766-1.3197 1.2219-1.7395 2.5586-1.8708 1.1251-0.11049 1.6024 0.0268 1.3745 0.39543-0.19194 0.31057-0.0977 0.56468 0.20935 0.56468 0.30709 0 0.56556-0.29657 0.57438-0.65904 9e-3 -0.36575 0.25519-0.24844 0.55343 0.26361 0.64367 1.1051 1.5395 1.2143 1.5395 0.18759 0-0.45282 0.50598-0.70588 1.3177-0.65904 0.99237 0.0573 1.3178 0.36892 1.3181 1.2623 2e-4 0.65245 0.23762 1.1863 0.5276 1.1863s0.52723-0.46999 0.52723-1.0444c0-1.1813 0.81271-1.4445 5.5359-1.7932 2.8528-0.21056 6.5847-0.64362 8.6993-1.0095 0.43496-0.0753 1.1032-0.33186 1.485-0.57023 0.90168-0.56298 1.3684-0.0725 0.9553 1.0039-0.21902 0.57077-0.67336 0.73974-1.3832 0.51444-0.76216-0.2419-1.0571-0.0963-1.0571 0.522 0 0.47162 0.17794 0.74771 0.39542 0.61354s0.40279 0.56359 0.41179 1.5506c9e-3 0.987-0.16894 1.7945-0.39542 1.7945-0.22649 0-0.41179-0.36989-0.41179-0.82197 0-0.47474-0.25063-0.66706-0.59332-0.45527-0.41171 0.25445-0.5248-0.22014-0.36948-1.5506 0.12311-1.0545 0.0342-1.9173-0.19753-1.9173-0.23175 0-0.42136 0.4551-0.42136 1.0113 0 1.6626-0.56689 2.631-1.3617 2.326-0.41097-0.1577-0.74721-0.0241-0.74721 0.29691 0 0.321 0.27679 0.58364 0.6151 0.58364 0.3383 0 0.50588 0.10921 0.3724 0.2427-0.43277 0.43277-2.5665-0.34778-2.2685-0.82987 0.15885-0.25701-0.0613-0.46729-0.48922-0.46729-0.42791 0-0.90535-0.29657-1.061-0.65904s-0.18704 0.0158-0.0698 0.84067c0.14511 1.021-0.1399 1.8624-0.89298 2.6362-0.60837 0.62504-0.9386 0.83988-0.73385 0.47741 0.20475-0.36248 0.14571-0.65904-0.1312-0.65904s-0.45541 0.94123-0.39667 2.0916c0.0673 1.3186-0.14782 2.1893-0.58211 2.356-0.3789 0.1454-0.68891-0.0841-0.68891-0.50994zm-11.469-5.4308c0.85004-0.3366 0.83994-0.41501-0.13181-1.0219-0.7417-0.46321-1.0525-0.48213-1.0525-0.0641 0 0.33362-0.46142 0.47253-1.0545 0.31744-0.57995-0.15166-1.0545-0.0781-1.0545 0.16347s0.41519 0.54771 0.92265 0.68032c1.2839 0.33553 1.3375 0.33383 2.3706-0.0753zm7.4174 4.9844c0.15335-0.39963 0.0166-0.98881-0.30387-1.3093-0.32048-0.32048-0.42056-0.74481-0.22241-0.94296 0.49225-0.49225 0.73924-0.16799 1.1654 1.53 0.24722 0.98501 0.15849 1.4488-0.27717 1.4488-0.35244 0-0.51532-0.32697-0.36197-0.7266zm-5.8582-1.9335c-0.35395-0.56677-0.42967-1.0305-0.16825-1.0305 0.47333 0 1.2885 1.5843 0.97597 1.8968-0.0903 0.0903-0.45377-0.29954-0.80772-0.86631zm3.056-0.73575c0-0.41785 0.2124-0.891 0.47199-1.0514 0.54273-0.33543 1.1972 1.0207 0.72189 1.496-0.56573 0.56573-1.1939 0.33182-1.1939-0.44457zm11.863-1.3492c-0.17922-0.28998-0.0746-0.52723 0.2325-0.52723 0.30709 0 0.55835 0.23725 0.55835 0.52723 0 0.28997-0.10463 0.52723-0.2325 0.52723-0.12788 0-0.37913-0.23726-0.55835-0.52723zm-31.37-1.5817c0-0.28998 0.25126-0.52723 0.55835-0.52723s0.41172 0.23725 0.2325 0.52723c-0.17922 0.28997-0.43047 0.52723-0.55835 0.52723s-0.2325-0.23726-0.2325-0.52723zm7.3812-0.0311c0-0.30709 0.23725-0.41171 0.52723-0.2325 0.28998 0.17922 0.53086-0.10335 0.5353-0.62792 0.0067-0.79431 0.09022-0.82387 0.4994-0.17684 0.32404 0.5124 0.27641 0.91356-0.13988 1.1782-0.88826 0.56467-1.4221 0.51177-1.4221-0.14094zm-8.9213-0.80366c0.02531-0.6142 0.15023-0.73913 0.31853-0.31854 0.1523 0.38059 0.13357 0.83533-0.0416 1.0105-0.1752 0.17519-0.2998-0.13621-0.27691-0.69199zm11.557-0.6075c0-0.32413-0.39283-0.66605-0.87295-0.75981-0.73747-0.144-0.75792-0.26262-0.13181-0.76434 0.40763-0.32663 1.1387-0.44526 1.6246-0.26362 0.77764 0.29072 0.79342 0.45284 0.13181 1.3537-0.4134 0.56288-0.75163 0.75822-0.75163 0.43408zm34.534-0.13942c-0.17922-0.28998-0.0746-0.52723 0.23249-0.52723s0.55835 0.23725 0.55835 0.52723c0 0.28997-0.10462 0.52723-0.2325 0.52723-0.12787 0-0.37913-0.23726-0.55834-0.52723zm-37.93-0.47791c-0.16239-0.26275-0.74275-0.36071-1.2897-0.21768s-1.149 0.01-1.338-0.29585c-0.19203-0.31071-1.0322-0.41817-1.9048-0.24364-1.5342 0.30684-1.9235-0.0807-1.1578-1.1526 0.25516-0.35717 1.5119-0.38644 3.6825-0.0858 2.7345 0.37875 3.2952 0.62801 3.2952 1.4648 0 1.0463-0.77212 1.3646-1.2875 0.53069zm-7.6754-0.57672c0-0.28998 0.25126-0.52723 0.55835-0.52723s0.41171 0.23725 0.2325 0.52723c-0.17922 0.28997-0.43047 0.52723-0.55835 0.52723s-0.2325-0.23726-0.2325-0.52723zm41.437-0.44673c-0.14684-0.23759 0.0191-0.45435 0.36886-0.48167 0.34971-0.0273 1.229-0.21778 1.9539-0.42322 1.0785-0.30565 1.1996-0.24681 0.66619 0.32372-0.77803 0.83218-2.6133 1.189-2.989 0.58117zm13.113-0.51463c0.16893-0.87722-0.0336-1.1476-0.8596-1.1476-0.74391 0-0.98604-0.2464-0.77711-0.79084 0.16691-0.43497 0.0737-0.79085-0.20721-0.79085-0.28088 0-0.51069-0.27402-0.51069-0.60894 0-0.34533 0.45649-0.19584 1.0545 0.34533 1.0276 0.92998 1.0545 0.92088 1.0545-0.35765 0-1.4335 1.3356-1.8348 1.8289-0.54956 0.2372 0.61814 0.44325 0.63728 1.0892 0.10117 0.65836-0.54639 0.74257-0.52019 0.48505 0.15091-0.1714 0.44665-0.0835 0.95307 0.1953 1.1254 0.27882 0.17231 0.66242-0.30619 0.85245-1.0634 0.19003-0.75715 0.45924-1.2629 0.59822-1.1239 0.13899 0.13899 5e-3 0.90368-0.29728 1.6993-0.53889 1.4174-0.57735 1.4287-1.9058 0.55822-1.4112-0.92468-2.418-0.69248-1.4022 0.32339 0.32048 0.32048 0.45721 0.90966 0.30386 1.3093-0.15335 0.39962-0.0162 0.7266 0.30482 0.7266 0.321 0 0.58364 0.2663 0.58364 0.59178 0 0.43125-0.18934 0.43465-0.69795 0.0126-0.50892-0.42237-0.86254-0.41464-1.3057 0.0285-0.4589 0.4589-0.55365 0.32667-0.38679-0.53977zm-63.472-1.4551c0.02531-0.6142 0.15023-0.73913 0.31853-0.31854 0.1523 0.38059 0.13357 0.83533-0.0416 1.0105-0.1752 0.17519-0.2998-0.13621-0.27691-0.69199zm2.6026-0.0879c0.0047-0.52653 0.17701-0.6963 0.40156-0.39542 0.21641 0.28998 0.6082 0.70517 0.87064 0.92265s0.08174 0.39543-0.40155 0.39543c-0.48846 0-0.87513-0.40977-0.87065-0.92266zm56.233 0.0843c0.27098-0.70616 0.1521-0.84837-0.50002-0.59813-0.60224 0.2311-0.76873 0.10211-0.56235-0.4357 0.16124-0.4202 0.85327-0.764 1.5378-0.764 1.0607 0 1.1813 0.17136 0.8159 1.1591-0.23583 0.63752-0.70286 1.2505-1.0378 1.3621-0.38704 0.12901-0.47946-0.13468-0.25354-0.72342zm-6.4179-0.21614c-0.17922-0.28997 0.044-0.52723 0.49611-0.52723 0.45208 0 0.82196 0.23726 0.82196 0.52723 0 0.28998-0.22325 0.52723-0.49611 0.52723-0.27287 0-0.64275-0.23725-0.82196-0.52723zm2.6703-0.47198c-0.16044-0.25959 0.0507-0.60339 0.46927-0.764 0.5076-0.19478 0.66335-0.0376 0.46779 0.47199-0.33986 0.88565-0.53298 0.94583-0.93706 0.29201zm22.671-0.73702c0.19799-0.51997 0.4928-0.81258 0.65513-0.65025s3.3e-4 0.58775-0.35998 0.94539c-0.52071 0.51682-0.58127 0.45627-0.29515-0.29514zm-86.906-0.56431c-0.26543-0.65676-0.74451-0.89161-1.4451-0.70839-0.67903 0.17756-1.0481 0.013-1.0481-0.46742 0-0.88515 0.26757-0.91755 1.6164-0.19571 0.61674 0.33007 1.0198 0.34707 1.0198 0.043 0-0.69572-3.6641-2.9-4.0985-2.4656-0.19383 0.19383-0.03232 0.55025 0.3589 0.79203 0.96283 0.59507 0.23551 1.6505-0.85027 1.2338-0.65083-0.24975-0.78151-0.11326-0.52689 0.55026 0.18623 0.48529 0.10879 0.88235-0.17208 0.88235-0.28088 0-0.51069-0.25125-0.51069-0.55834s-0.22086-0.42185-0.4908-0.25502c-0.87617 0.54151-1.1239-0.66003-0.30489-1.479 1.0137-1.0137 1.0065-1.3982-0.02626-1.3982-0.45208 0-0.69137 0.21131-0.53175 0.46956 0.15961 0.25826-0.36021 0.88549-1.1552 1.3938-0.79494 0.50835-1.2695 0.73408-1.0545 0.5016 0.21497-0.23248 0.1221-0.74651-0.20638-1.1423-0.4705-0.56692-0.41804-0.65085 0.24723-0.39557 0.64912 0.2491 0.79282 0.0559 0.62121-0.83519-0.17801-0.92435-0.02151-1.1065 0.77236-0.89888 0.7376 0.19288 0.92636 0.0367 0.7284-0.60262-0.22518-0.72723-0.14584-0.7154 0.50432 0.0752 0.66825 0.81257 0.81295 0.83021 1.081 0.13181 0.34117-0.8891 1.9242-1.1187 1.9242-0.27911 0 0.28998 0.17794 0.48316 0.39542 0.42929 0.21748-0.0539 1.3141 0.30201 2.4369 0.79084 1.1228 0.48884 2.2638 0.88879 2.5355 0.88879 0.27168 0 0.36269 0.2124 0.20226 0.47199s0.06281 0.60802 0.49611 0.7743c1.2772 0.49009 0.90005 1.2651-0.48663 1-1.0231-0.19558-1.31 5.3e-4 -1.4546 0.99577-0.16131 1.1095-0.22182 1.1364-0.57726 0.25692zm6.997-0.41584c0-0.59237 1.6458-0.55701 2.6153 0.0562 0.55865 0.35336 0.30538 0.47384-0.92265 0.43892-0.93096-0.0265-1.6927-0.24927-1.6927-0.49512zm79.612-0.6542c0-0.11397 0.3682-0.3485 0.81823-0.5212 0.46919-0.18004 0.68082-0.0917 0.49611 0.20721-0.30962 0.50098-1.3143 0.741-1.3143 0.31399zm-8.3186-1.7611c0.0995-1.6032 0.20909-1.6919 1.8396-1.4896 1.4342 0.17789 1.7338 0.0397 1.7338-0.79966 0-0.55808-0.23725-1.0147-0.52723-1.0147s-0.52723-0.2663-0.52723-0.59178c0-0.42383 0.21237-0.41554 0.74829 0.0293 0.59108 0.49055 0.86462 0.42104 1.302-0.33087 0.45836-0.78791 0.55652-0.80809 0.56979-0.11711 9e-3 0.45913-0.16191 1.0126-0.37939 1.23-0.21749 0.21739-0.79737 1.3839-1.2886 2.5922-0.49126 1.2083-0.90645 1.7818-0.92266 1.2743-0.0162-0.50746-0.37354-0.92265-0.7941-0.92265-0.42055 0-1.0111 0.41519-1.3124 0.92265-0.44852 0.75548-0.5286 0.61379-0.44195-0.78203zm13.848-1.2059c-0.17554-0.28404 0.0798-0.51643 0.56735-0.51643 0.68435 0 0.75184-0.16227 0.29596-0.71158-0.44936-0.54144-0.33872-1.002 0.46267-1.926l1.0532-1.2144v1.1351c0 0.62432-0.17794 1.107-0.39542 1.0727-1.0904-0.17218-1.2948 0.13047-0.48727 0.72147 0.83996 0.61471 0.83065 0.70264-0.1384 1.3073-0.65342 0.40769-1.1574 0.4566-1.3581 0.1318zm-5.2217-0.38462c-0.21748-0.21748-0.8897-0.39542-1.4938-0.39542-1.4284 0-1.6748-0.83702-0.62704-2.1302 0.46037-0.56822 0.73051-0.79588 0.60031-0.5059-0.13021 0.28997-0.0459 1.0017 0.18746 1.5817l0.4242 1.0545 0.0531-1.0545c0.0493-0.97901 0.092-0.98764 0.5967-0.12072 0.29898 0.51356 0.74141 0.81148 0.98318 0.66207 0.24177-0.14943 0.57562 0.0828 0.74189 0.51613 0.31332 0.81648-0.75572 1.1026-1.466 0.3924zm3.9103-0.65904c0-0.57995 0.21504-1.0545 0.47787-1.0545s0.35379 0.47451 0.20213 1.0545c-0.15167 0.57995-0.36671 1.0545-0.47787 1.0545-0.11117 0-0.20213-0.47451-0.20213-1.0545zm-104.39-0.52718c0-0.28998 0.35588-0.52723 0.79084-0.52723s0.79085 0.23725 0.79085 0.52723-0.35588 0.52723-0.79085 0.52723c-0.43496 0-0.79084-0.23725-0.79084-0.52723zm93.056 0c-0.17921-0.28998-0.0746-0.52723 0.2325-0.52723 0.30709 0 0.55835 0.23725 0.55835 0.52723s-0.10463 0.52723-0.2325 0.52723-0.37913-0.23725-0.55835-0.52723zm-89.366-0.52723c0-0.28998-0.3527-0.52723-0.78377-0.52723s-1.1303-0.82929-1.5538-1.8429c-0.70823-1.695-0.88073-1.8008-2.1503-1.3181-1.845 0.70145-2.0826 0.6629-1.3506-0.21912 0.4678-0.56366 0.46916-0.83551 0.0056-1.122-0.33648-0.20795-0.76319-0.16463-0.94825 0.0963-0.42143 0.59411-3.3064 0.728-2.9408 0.13648 0.38419-0.62163-0.95016-2.5847-1.7569-2.5847-0.37431 0-0.82477-0.37577-1.001-0.83506-0.258-0.67233-0.4073-0.69801-0.76622-0.1318-0.31832 0.50217-0.44809 0.51954-0.45386 0.0608-0.0044-0.35337-0.36395-0.50593-0.79892-0.33901-0.47703 0.18305-0.79085 3e-3 -0.79085-0.45469 0-0.935-2.3226-2.2468-3.1131-1.7583-0.31763 0.19631-0.5775 0.12544-0.5775-0.15749s0.29657-0.63475 0.65904-0.78183c0.50967-0.2068 0.49436-0.38264-0.06755-0.77583-0.39962-0.27963-0.56356-0.7722-0.36431-1.0946s0.12281-0.58617-0.16987-0.58617-0.74995 0.38919-1.0162 0.86486c-0.5117 0.91437-1.6829 0.56315-1.6692-0.50056 0.0049-0.37729 0.21207-0.31226 0.51916 0.16293 0.40954 0.63371 0.51269 0.54394 0.51916-0.45184 0.0058-0.88966-0.21658-1.1565-0.78277-0.93919-0.51127 0.19619-0.79677-0.0168-0.80761-0.60263-0.01496-0.80853-0.09955-0.79669-0.7854 0.10986-0.42275 0.55879-0.94215 0.84245-1.1542 0.63037s-0.15522-0.55064 0.12636-0.75235c0.28158-0.20172 0.77559-0.84127 1.0978-1.4212 0.47686-0.85831 0.38829-1.2261-0.47609-1.9771-0.58406-0.50746-1.2905-0.92266-1.57-0.92266s-0.38396-0.4745-0.2323-1.0545c0.28166-1.0771-0.36658-1.4609-0.92938-0.55025-0.49719 0.80447-1.8595 7e-3 -1.8595-1.0878 0-1.2473-1.3476-1.3142-1.8173-0.0902-0.29844 0.77772-0.41874 0.79662-0.83918 0.1318-0.26994-0.42683-0.4908-1.0133-0.4908-1.3033 0-0.28998 0.22999-0.17135 0.51108 0.26361 0.2811 0.43497 0.53106 0.67222 0.55548 0.52723 0.34879-2.0709 0.34784-3.1634-0.0027-3.1634-0.69733 0-1.0234-2.0379-0.36498-2.2814 0.43946-0.16249 0.42427-0.41253-0.05596-0.92157-0.47597-0.50453-0.65904-0.52284-0.65904-0.0659 0 0.34797-0.23725 0.63268-0.52723 0.63268s-0.46792-0.28579-0.39542-0.63508c0.12264-0.5909-0.08575-0.69127-1.8453-0.88878-0.49113-0.0551-0.47528-0.19039 0.06223-0.5309 0.58228-0.36888 0.50608-0.67212-0.39542-1.5736-0.61418-0.61418-0.93875-1.1239-0.72127-1.1327 0.21748-9e-3 -0.01977-0.25785-0.52723-0.55342s-0.92265-0.88149-0.92265-1.302c0-0.42055-0.38126-0.76464-0.84725-0.76464-0.56425 0-0.73782-0.28518-0.51963-0.85376 0.26132-0.68101 0.05937-0.80249-0.99805-0.60035-0.72912 0.13938-1.3257 0.0491-1.3257-0.2007 0-0.24976 0.41519-0.46201 0.92265-0.47166 0.78892-0.015 0.7507-0.16098-0.26362-1.0072-0.65245-0.54429-1.1899-1.4261-1.1943-1.9596-0.0062-0.74527-0.11307-0.80425-0.46133-0.25463-0.32953 0.52007-0.55559 0.54975-0.82816 0.10872-0.2062-0.33364-0.09015-0.94973 0.25789-1.3691 0.51434-0.61974 0.39946-0.85591-0.61365-1.2616-1.1204-0.44862-1.1398-0.50668-0.19199-0.57413 0.57995-0.0413 0.75789-0.19471 0.39542-0.34097s-0.66267-0.66135-0.66711-1.1446c-7e-3 -0.76-0.07712-0.77187-0.51916-0.0879-0.44193 0.68385-0.51218 0.67185-0.51916-0.0887-0.0044-0.48375-0.15208-1.2548-0.3281-1.7135-0.21-0.54726-0.02874-0.83397 0.52723-0.83397 0.46599 0 0.84725-0.25126 0.84725-0.55835s-0.17794-0.45062-0.39542-0.31895-0.70134-0.0916-1.0752-0.49611c-0.55494-0.6004-0.55494-0.73859 0-0.75228 0.41802-0.0103 0.29913-0.30505-0.30873-0.76535-0.54371-0.41172-0.98856-1.3532-0.98856-2.0922 0-0.73897-0.20015-1.3436-0.44478-1.3436s-0.30822-0.35588-0.1413-0.79085c0.19217-0.50078-0.00727-0.79084-0.54378-0.79084-0.50386 0-0.84725-0.43999-0.84725-1.0856 0-0.59707 0.23725-0.93894 0.52723-0.75973 0.81689 0.50487 0.62205-0.24411-0.30455-1.1707-0.45748-0.45749-0.72095-1.2556-0.58549-1.7736s-0.083372-1.0683-0.48629-1.2229c-1.0801-0.41448-0.89058-2.3019 0.26808-2.6697 0.98126-0.31145 1.0119-0.58152 0.49524-4.3667-0.049475-0.36247-0.34698-0.66267-0.66112-0.66711-0.31414-4e-3 -0.21529-0.23806 0.21968-0.51916 0.52723-0.34072 0.57117-0.51377 0.13181-0.51916-1.0971-0.0134-0.73771-0.97704 0.43175-1.1577l1.0908-0.16847-1.0854-1.1585c-0.59698-0.63716-0.86094-1.2972-0.58658-1.4668 0.27436-0.16956 0.36519-0.65658 0.20184-1.0823-0.19493-0.50799 0.039458-0.77674 0.68206-0.78203 1.5353-0.0127 2.3704-0.76915 1.978-1.7918-0.28049-0.73094-0.44825-0.77735-0.80063-0.22146-0.33378 0.52655-0.44781 0.53766-0.45386 0.0442-0.00443-0.36247-0.46858-0.65904-1.0314-0.65904s-1.17-0.23725-1.3492-0.52723c-0.17922-0.28997 0.00438-0.52723 0.408-0.52723 0.44092 0 0.69158-0.47352 0.62796-1.1863-0.058242-0.65244 0.22593-2.0037 0.63149-3.0028 0.40556-0.99909 0.62623-2.6599 0.49039-3.6906-0.13585-1.0307-0.12334-1.5775 0.02779-1.215 0.45213 1.0844 1.3866 0.74426 1.0884-0.39615-0.15177-0.58035-0.10313-0.94839 0.10808-0.81786 0.53546 0.33094 2.3147-1.8389 1.8558-2.2631-0.20545-0.18992-0.47946-0.04872-0.60892 0.31373-0.4465 1.2502-1.4659 0.65279-1.5762-0.9237-0.097058-1.3873 0.064151-1.5847 1.3181-1.6141 1.3806-0.03232 1.3887-0.04946 0.24239-0.51024-1.2641-0.50809-1.6278-1.5765-0.52723-1.5485 0.36247 0.0092 1.1086 0.35708 1.6581 0.773 0.91002 0.68886 0.94524 1.024 0.39542 3.7618-0.90614 4.512-0.76574 20.86 0.22919 26.687 3.3289 19.495 11.161 35.154 24.632 49.245 2.9438 3.0792 4.5282 5.1246 4.2804 5.5256-0.27101 0.43851-0.11763 0.53082 0.49281 0.29657 1.0293-0.39502 8.2496 5.1112 8.2496 6.2912 0 0.39802 0.25126 0.72368 0.55834 0.72368s0.41146-0.23767 0.23194-0.52814c-0.17952-0.29048 0.51824-0.0298 1.5506 0.57931 1.2341 0.72814 1.8742 1.4959 1.8689 2.2416-0.0067 0.94562-0.10106 1.0027-0.56737 0.34334-0.49715-0.70297-0.53534-0.70297-0.34366 0 0.1186 0.43497 0.63927 0.87297 1.157 0.97334 0.57828 0.1121 0.80363-0.0404 0.58423-0.39543-0.51083-0.82653 1.8689-0.70278 3.0003 0.15602 0.50746 0.38522 0.91902 1.0301 0.91458 1.4331-0.0065 0.58857-0.1059 0.578-0.50528-0.0537-0.39598-0.62633-0.63048-0.65317-1.1518-0.13181-0.78349 0.78349-2.5527 0.87178-2.5527 0.1274zm-18.453-15.29c0-0.28997-0.25126-0.52723-0.55835-0.52723s-0.41172 0.23726-0.2325 0.52723c0.17922 0.28998 0.43047 0.52723 0.55835 0.52723s0.2325-0.23725 0.2325-0.52723zm-27.319-54.419c-0.37832-0.37832-0.62389-0.40945-0.62389-0.0791 0 0.70374 0.62351 1.3272 0.97538 0.97538 0.14982-0.14982-0.0083-0.55315-0.35149-0.89629zm0.9578-15.175c0-0.28998-0.23725-0.52724-0.52723-0.52724s-0.52723 0.23726-0.52723 0.52724c0 0.28997 0.23725 0.52723 0.52723 0.52723s0.52723-0.23726 0.52723-0.52723zm0.71789-5.5359c-0.16691-0.43496-0.39672-0.79085-0.51068-0.79085s-0.20721 0.35588-0.20721 0.79085 0.22981 0.79084 0.51068 0.79084 0.37412-0.35588 0.20721-0.79084zm37.77 88.631c0-0.11396 0.3682-0.3485 0.81823-0.52119 0.4692-0.18004 0.68082-0.0917 0.49611 0.20721-0.30962 0.50098-1.3143 0.74099-1.3143 0.31398zm107.57-0.56608c-0.55265-0.6659-0.53008-0.8084 0.12808-0.8084 0.43944 0 0.92832-0.33704 1.0864-0.74898 0.33299-0.86777 2.0436-0.76856 2.3451 0.13601 0.11238 0.33713-0.28995 0.61297-0.89407 0.61297s-1.0391 0.26691-0.96659 0.59313c0.21108 0.94986-0.96554 1.099-1.6989 0.21527zm-3.9688-0.15743c-0.90463-0.66462-0.76001-1.4795 0.26256-1.4795 0.53795 0 0.86288 0.18642 0.72207 0.41426s0.17317 0.41788 0.69775 0.42232c0.80867 7e-3 0.83345 0.0858 0.16292 0.51916-0.94879 0.61315-1.1599 0.62731-1.8453 0.12374zm-106.5-0.65097c-0.17922-0.28998 0.05804-0.52723 0.52723-0.52723s0.70645 0.23725 0.52723 0.52723-0.41647 0.52723-0.52723 0.52723-0.34802-0.23725-0.52723-0.52723zm116.78-0.75973c0-0.74205 0.18676-1.3492 0.41503-1.3492 0.59827 0 0.66501 2.0309 0.0787 2.3933-0.27153 0.16781-0.49368-0.30202-0.49368-1.0441zm-7.3812-0.32585c0-0.30709 0.23726-0.41171 0.52723-0.2325 0.28998 0.17922 0.52723 0.43048 0.52723 0.55835 0 0.12788-0.23725 0.2325-0.52723 0.2325-0.28997 0-0.52723-0.25126-0.52723-0.55835zm5.2723-0.2325c-0.36098-0.43496-1.2797-0.79447-2.0417-0.79891-0.76193-4e-3 -1.7412-0.26408-2.1762-0.57697-0.66753-0.48019-0.64698-0.52261 0.13181-0.27209 0.59462 0.19128 0.92265 0.0215 0.92265-0.47749 0-1.2716 0.1197-1.5352 1.0022-2.2074 1.0284-0.78337 1.8154-0.8687 1.3704-0.14857-0.17922 0.28997-0.0492 0.52723 0.28891 0.52723s0.47681-0.35946 0.30822-0.7988c-0.18984-0.49472 0.32704-1.3477 1.3578-2.2407 0.91537-0.79306 2.6319-2.4334 3.8145-3.6453l2.1502-2.2034 1.2009 1.3483c1.4897 1.6725 2.0899 1.2628 0.87234-0.59542-0.85627-1.3068-0.85389-1.3553 0.0494-1.0087 0.73605 0.28245 0.87349 0.16762 0.61273-0.51193-0.1849-0.48182-0.16678-0.8508 0.0403-0.81994 1.0583 0.15775 1.7317-0.13834 1.6552-0.72779-0.1838-1.4155 0.0761-1.8768 0.96201-1.7072 0.50746 0.0971 1.3304 0.19478 1.8288 0.21696 0.58 0.0258 0.79731 0.32387 0.60379 0.82816-0.16627 0.4333-0.57402 0.61791-0.9061 0.41025-1.1733-0.73369-1.973-0.58154-1.816 0.34548 0.0867 0.51184-0.10985 1.2636-0.43682 1.6706-0.32696 0.40701-0.76459 1.2942-0.97251 1.9716-0.35385 1.1527-0.29895 1.1903 0.85813 0.58748l1.2362-0.64403-1.162 1.266c-0.83411 0.90874-1.0201 1.4868-0.65904 2.0487 0.39909 0.62105 0.59315 0.64318 0.93969 0.10717 0.31659-0.48971 0.78795-0.53516 1.7135-0.16523 1.1289 0.45121 1.153 0.51417 0.20781 0.54371-0.58793 0.0184-1.6116 0.41351-2.2748 0.87805-0.66323 0.46454-1.3487 0.7018-1.5233 0.52723s-0.0237-0.31739 0.33537-0.31739c0.42631 0 0.34537-0.30738-0.23331-0.88607-0.79093-0.79093-0.93506-0.79851-1.3424-0.0706-0.28886 0.51616-0.92793 0.72535-1.7411 0.56991-0.91519-0.17495-1.4502 0.0636-1.86 0.82942-0.37982 0.70969-0.39568 1.186-0.0467 1.4017 0.29076 0.1797 0.52144 0.72792 0.51262 1.2183-0.0147 0.81784-0.0604 0.81527-0.55343-0.0311-0.67294-1.1554-1.5395-1.1978-1.5395-0.0754 0 0.58923-0.28098 0.74029-0.92265 0.49599-0.73978-0.28163-0.79203-0.21967-0.26362 0.31266 0.88522 0.89176 0.83139 1.5075-0.1318 1.5075-0.43497 0-0.79448 0.29657-0.79892 0.65904-5e-3 0.44631-0.1664 0.40869-0.49857-0.11654-0.26976-0.42657-0.65582-0.61024-0.8579-0.40817-0.20208 0.20208-0.0673 0.72903 0.2995 1.171 0.36681 0.44198 0.5483 0.80359 0.40331 0.80359s-0.55897-0.35588-0.91996-0.79085zm-6.5904-0.26361c-0.17922-0.28998-0.0746-0.52723 0.23249-0.52723 0.3071 0 0.55835 0.23725 0.55835 0.52723s-0.10462 0.52723-0.2325 0.52723c-0.12787 0-0.37913-0.23725-0.55834-0.52723zm-114.15-0.21561c0-0.10038 0.35588-0.47786 0.79085-0.83885 0.45584-0.37832 0.79084-0.42956 0.79084-0.12096 0 0.29445-0.35588 0.67194-0.79084 0.83885s-0.79085 0.22134-0.79085 0.12096zm136.55-11.911c-0.67585-0.43677-0.65669-0.51225 0.13181-0.51915 0.50746-4e-3 0.92265 0.22918 0.92265 0.51915 0 0.64302-0.0595 0.64302-1.0545 0zm-2.5529-1.0545c0-0.72494 0.11968-1.0215 0.26593-0.65903 0.14626 0.36247 0.14626 0.9556 0 1.3181-0.14625 0.36247-0.26593 0.0659-0.26593-0.65904zm4.1628 0.0527c-0.41073-0.76746-0.34333-1.0757 0.28818-1.3181 1.4666-0.56279 2.0825-0.30278 1.0807 0.45622-0.5365 0.40645-0.81906 0.99204-0.62792 1.3013 0.19113 0.30927 0.22324 0.56231 0.0713 0.56231-0.1519 0-0.51743-0.4508-0.8123-1.0018zm-147.92-0.57993c0.17922-0.28997 0.5491-0.52723 0.82196-0.52723s0.49612 0.23726 0.49612 0.52723c0 0.28998-0.36988 0.52723-0.82196 0.52723s-0.67533-0.23725-0.49612-0.52723zm145.43 0.10315c-0.37485-0.23435-0.0838-0.73861 0.80612-1.3967 1.2752-0.943 1.326-0.94728 0.60193-0.0508-0.43496 0.53852-0.71176 1.0811-0.6151 1.2056 0.33891 0.43683-0.21216 0.60487-0.79295 0.24179zm4.4187-2.7393c0.15166-0.57995 0.48533-1.0545 0.74148-1.0545 0.55121 0 0.57043 0.16819 0.14572 1.275-0.46454 1.2106-1.2128 1.0246-0.8872-0.2205zm-6.1733-1.1863c-4.1e-4 -0.21748 0.41445-0.40296 0.92191-0.41218 0.84972-0.0155 0.84464-0.0759-0.0643-0.7642-0.86815-0.65743-0.89371-0.84068-0.2123-1.5221 0.68139-0.6814 0.87556-0.65683 1.6127 0.20411 0.59766 0.69801 0.65856 1.0449 0.21231 1.2093-0.45821 0.16882-0.42859 0.42466 0.11062 0.9555 0.62508 0.61536 0.67253 0.61301 0.31396-0.0156-0.2831-0.49627-0.22167-0.61642 0.18627-0.3643 1.1528 0.71245 0.60453 1.2304-1.2359 1.1677-1.0145-0.0346-1.8449-0.24083-1.8453-0.45831zm3.1626-4.086c0-0.28998 0.25126-0.52723 0.55835-0.52723s0.41171 0.23725 0.2325 0.52723c-0.17922 0.28998-0.43048 0.52723-0.55835 0.52723s-0.2325-0.23725-0.2325-0.52723zm5.8828-4.2178c0-0.72494 0.11967-1.0215 0.26593-0.65904s0.14626 0.95561 0 1.3181-0.26593 0.0659-0.26593-0.65904zm-0.61048-2.1089c-0.47518-0.30709-0.54021-0.51431-0.16292-0.51916 0.34536-4e-3 0.77455 0.22918 0.95377 0.51916 0.40454 0.65457 0.22203 0.65457-0.79085 0zm0.33657-1.8453c-0.16691-0.43496-0.0959-0.79084 0.15785-0.79084 0.25373 0 0.33724-0.47451 0.18558-1.0545-0.18798-0.71885-0.0162-1.0545 0.53978-1.0545 0.65081 0 0.72621 0.31147 0.3733 1.542-0.24323 0.8481-0.30576 1.6785-0.13894 1.8453 0.16681 0.16681 0.0519 0.3033-0.25539 0.3033s-0.69526-0.35588-0.86218-0.79085zm2.2996-2.8998c0-0.28998 0.0202-0.67865 0.045-0.86371s-0.26515-0.52818-0.64426-0.76248c-0.53824-0.33266-0.49593-0.50021 0.19308-0.76461 0.48531-0.18623 1.1426-1.127 1.4606-2.0907 0.53578-1.6234 2.1089-2.9876 2.1089-1.8288 0 0.28087 0.47451 0.51068 1.0545 0.51068 1.747 0 1.188 1.5118-0.87839 2.3751-1.8312 0.7651-1.8797 0.8467-0.92265 1.5511 0.97633 0.71859 0.97749 0.75619 0.0343 1.1216-0.60707 0.23521-1.168 0.10001-1.4844-0.35776-0.36564-0.52908-0.41479-0.40251-0.17487 0.4504 0.19625 0.69769 0.1019 1.1863-0.22908 1.1863-0.30951 0-0.56274-0.23726-0.56274-0.52723zm4.1739-4.547c0.68379-0.61667-0.41997-0.52296-1.5386 0.13063l-1.3173 0.7697 1.3181-0.3511c0.72494-0.19311 1.4169-0.44026 1.5378-0.54923zm0.25319-3.1457c0.0299-0.84364 0.28568-1.4924 0.56841-1.4416 0.83142 0.14923 0.86996 0.9341 0.0977 1.9902-0.66815 0.91375-0.71655 0.87389-0.66614-0.54856zm-1.5273-1.2703c-0.17921-0.28998-0.0746-0.52723 0.2325-0.52723 0.30709 0 0.55835 0.23725 0.55835 0.52723s-0.10463 0.52723-0.2325 0.52723c-0.12788 0-0.37913-0.23725-0.55835-0.52723zm-178.04-0.88738c0.38059-0.15231 0.83533-0.13358 1.0105 0.0416 0.17519 0.1752-0.1362 0.29981-0.69199 0.27692-0.61419-0.0253-0.73912-0.15023-0.31854-0.31854zm180.02-1.0897c-0.36247-0.12083-0.65903-0.80704-0.65903-1.5249 0-0.79145 0.22169-1.1682 0.56317-0.95719 0.30975 0.19143 0.45099 0.6404 0.31388 0.9977s0.0906 0.64965 0.50593 0.64965c0.41538 0 0.63017-0.25703 0.47731-0.57117s-0.42438-0.98636-0.60337-1.4938c-0.179-0.50746-0.58248-0.92265-0.89663-0.92265-0.37593 0-0.35491-0.21628 0.0615-0.63268 0.34797-0.34797 0.63268-1.0597 0.63268-1.5817s0.36988-0.94901 0.82196-0.94901c0.5231 0 0.67394-0.23951 0.41485-0.65872-0.52313-0.84645-0.24072-3.6293 0.45416-4.4751 0.29475-0.35877 0.39819-1.0112 0.22986-1.4499-0.16832-0.43865-0.11382-0.79756 0.12113-0.79756s0.44381-1.1 0.46413-2.4444c0.0216-1.4314 0.32938-2.6298 0.74255-2.8917 0.38807-0.24597 0.46308-0.45087 0.16669-0.45531-0.36319-5e-3 -0.341-1.9939 0.068-6.0983 0.48544-4.871 0.80442-6.2398 1.5934-6.8372 0.95343-0.72203 0.95003-0.74757-0.10154-0.76378-0.96901-0.0149-1.0761-0.3103-0.97938-2.7016 0.10761-2.6611 1.2765-5.127 1.2765-2.6929 0 0.63795 0.19761 1.1599 0.43912 1.1599 0.24152 0 0.39538 0.53382 0.34192 1.1863-0.12468 1.5218 0.26199 2.5736 0.81947 2.2291 0.90601-0.55994 1.7303 1.8441 0.84443 2.4629-0.26956 0.18829 0.12238 0.95483 0.87097 1.7034s1.1391 1.4982 0.86789 1.6659c-0.27126 0.16765-0.50987 0.82463-0.53025 1.46-0.0356 1.1106-0.0538 1.1145-0.47064 0.10069l-0.43358-1.0545-0.41355 1.0545c-0.22746 0.57996-0.64728 1.2109-0.93295 1.402-0.30883 0.20667-0.12786 0.7391 0.44641 1.3134 0.68528 0.68527 1.0291 0.77574 1.1839 0.31146 0.11997-0.35988 0.61354-0.65435 1.0968-0.65437 0.63565-3e-5 0.86574 0.43832 0.8318 1.5847-0.0258 0.87159-0.19244 1.7302-0.37031 1.9081s0.0212 0.66799 0.44233 1.0891c0.42116 0.42116 0.75785 1.2826 0.7482 1.9144l-0.0176 1.1486-0.98109-1.1757c-0.73801-0.88443-1.1009-1.0151-1.4647-0.52723-0.26597 0.35668-0.46109 1.0044-0.43359 1.4394 0.0275 0.43497-0.16482 0.94135-0.42735 1.1253-0.26252 0.18394-0.37849 0.63091-0.25771 0.99326 0.15999 0.47997 0.46369 0.41473 1.1187-0.2403 0.84734-0.84733 0.89912-0.81819 0.89912 0.50598 0 0.96169-0.33276 1.4921-1.0545 1.6808-1.2386 0.32389-1.3982 1.4897-0.26362 1.9251 1.1542 0.44291 0.96686 1.2145-0.39542 1.6286-0.70452 0.21416-0.92205 0.46994-0.53566 0.62985 0.76329 0.31589-1.9763 2.8185-3.0993 2.8312-0.58095 7e-3 -0.57565 0.0961 0.0283 0.47845 0.87369 0.55309 2.2454 0.1466 2.842-0.84219 0.62504-1.0359 1.4237-0.84682 1.4237 0.33712 0 0.56975-0.49291 1.2997-1.0954 1.6221-0.60244 0.32242-0.98478 0.87435-0.84965 1.2265 0.14657 0.38196-0.28137 0.68391-1.0607 0.7484-1.5743 0.1303-2.2666 0.51338-2.2666 1.2541 0 0.30388 0.35588 0.41595 0.79085 0.24904 0.43496-0.16691 0.79084-0.0877 0.79084 0.17609 0 1.0034-0.93809 0.9922-2.0291-0.0242l-1.1343-1.0568v1.2508c0 1.2022-0.5708 1.4998-1.9771 1.0311zm2.5892-4.7451c-0.2069-1.0131-0.35574-1.17-0.49402-0.52078-0.10884 0.51101-0.4172 0.79358-0.68522 0.62793-0.55697-0.34423-0.66718 0.45991-0.13584 0.99124 0.88071 0.88072 1.5971 0.28237 1.3151-1.0984zm4.6602-8.0403c0-0.28998-0.10462-0.52724-0.2325-0.52724-0.12787 0-0.37913 0.23726-0.55835 0.52724-0.17921 0.28997-0.0746 0.52723 0.2325 0.52723 0.30709 0 0.55835-0.23726 0.55835-0.52723zm0.52723-8.141c0-0.12787-0.23725-0.37913-0.52723-0.55834-0.28998-0.17922-0.52723-0.0746-0.52723 0.23249s0.23725 0.55835 0.52723 0.55835 0.52723-0.10462 0.52723-0.2325zm-2.1089-7.676c0-0.28998-0.23725-0.52723-0.52723-0.52723s-0.52723 0.23725-0.52723 0.52723 0.23725 0.52723 0.52723 0.52723 0.52723-0.23725 0.52723-0.52723zm2.1089-4.7451c0-0.28998-0.23725-0.52723-0.52723-0.52723s-0.52723 0.23725-0.52723 0.52723c0 0.28997 0.23725 0.52723 0.52723 0.52723s0.52723-0.23726 0.52723-0.52723zm2.8781 24.218c-0.19114-0.30927-0.23445-0.67538-0.0962-0.81358 0.1382-0.13821 0.39176 0.11483 0.56348 0.5623 0.3565 0.92904 0.0527 1.0924-0.46723 0.25128zm-0.50555-3.1283c0.17921-0.28998 0.43047-0.52723 0.55834-0.52723 0.12788 0 0.2325 0.23725 0.2325 0.52723 0 0.28997-0.25126 0.52723-0.55835 0.52723s-0.41171-0.23726-0.23249-0.52723zm-2.3725-13.181c0-0.28998 0.23725-0.52723 0.52723-0.52723s0.52723 0.23725 0.52723 0.52723-0.23725 0.52723-0.52723 0.52723-0.52723-0.23725-0.52723-0.52723zm-190.03-4.6899c-0.87139-0.34136-0.89635-0.44386-0.17544-0.7205 0.48722-0.18697 0.96265-4e-3 1.1312 0.43503 0.15989 0.41666 0.23883 0.74088 0.17544 0.7205-0.063393-0.0203-0.57242-0.21614-1.1312-0.43503zm191.46-1.6368c0.15166-0.57996 0.33903-1.0545 0.41638-1.0545 0.0773 0 0.26471 0.4745 0.41638 1.0545 0.17233 0.659 0.0162 1.0545-0.41638 1.0545-0.43256 0-0.58871-0.39546-0.41638-1.0545zm-0.9017-7.3812c0-0.28998 0.22325-0.52723 0.49611-0.52723 0.27287 0 0.64275 0.23725 0.82197 0.52723 0.17921 0.28998-0.044 0.52723-0.49612 0.52723-0.45208 0-0.82196-0.23725-0.82196-0.52723zm2.6362-0.03111c0-0.30709 0.23726-0.41171 0.52723-0.2325 0.28998 0.17922 0.52723 0.43047 0.52723 0.55835 0 0.12787-0.23725 0.23249-0.52723 0.23249-0.28997 0-0.52723-0.25125-0.52723-0.55835zm-6.6901-1.9191c0.0431-0.88494 0.21757-1.0257 0.73711-0.59448 0.77836 0.64598 0.92269 1.1748 0.19848 0.72724-0.26521-0.16391-0.59691 2.7e-5 -0.73711 0.36431s-0.22951 0.1406-0.19848-0.49707zm0.0997-4.3765c0.17922-0.28998 0.0606-0.52723-0.26361-0.52723s-0.45535-0.21699-0.29145-0.4822c0.16391-0.26521-3e-5 -0.60236-0.3643-0.74922-0.52706-0.21249-0.52568-0.27552 7e-3 -0.30865 0.67721-0.04213 0.41144-2.3352-0.40201-3.4686-0.20811-0.28998-0.51397-1.0798-0.67968-1.7551-0.23215-0.94612-0.11874-1.1579 0.4942-0.92265 0.43752 0.16789 0.98797 0.30526 1.2232 0.30526 0.74648 0 1.13 1.7446 0.47287 2.1507-0.46603 0.28803-0.4019 0.61842 0.24576 1.2661 0.81698 0.81698 0.87635 0.80237 0.87635-0.21577 0-0.60067 0.23725-1.0921 0.52723-1.0921 0.75223 0 0.67307 0.32294-0.65904 2.6886-1.1687 2.0755-1.1711 2.118-0.16284 2.8724 0.99682 0.74582 0.99259 0.76572-0.16293 0.76572-0.65664 0-1.0408-0.23541-0.8605-0.52723zm0-6.854c-0.17921-0.28998-0.5491-0.52723-0.82196-0.52723s-0.49611 0.23725-0.49611 0.52723 0.36988 0.52723 0.82196 0.52723 0.67533-0.23725 0.49611-0.52723zm1.1775 5.2069c0.35764-0.36032 0.78307-0.52231 0.9454-0.35998 0.16232 0.16233-0.13029 0.45714-0.65025 0.65513-0.75141 0.28612-0.81197 0.22556-0.29515-0.29514zm-182.47-3.3616c0.16691-0.43496 0.39672-0.79084 0.51068-0.79084s0.20721 0.35588 0.20721 0.79084-0.22981 0.79084-0.51068 0.79084c-0.28088 0-0.37412-0.35588-0.20721-0.79084zm-0.25624-1.7845c-0.58951-0.3736-0.57936-0.5728 0.05964-1.1697 0.546-0.51005 0.64842-1.1439 0.3519-2.1778-0.52643-1.8356 0.09132-1.8976 0.92866-0.09328 0.41884 0.90254 0.46735 1.7838 0.14486 2.632-0.54659 1.4376-0.51761 1.4218-1.4851 0.80874zm180.23-2.6804c0-0.28087 0.35588-0.37412 0.79084-0.20721 0.43497 0.16692 0.79085 0.39672 0.79085 0.51069 0 0.11396-0.35588 0.20721-0.79085 0.20721-0.43496 0-0.79084-0.22981-0.79084-0.51068zm3.1634-2.0943c0-0.27286 0.23454-0.64107 0.52119-0.81823 0.29887-0.18471 0.38725 0.02694 0.20721 0.49611-0.3505 0.91338-0.7284 1.0805-0.7284 0.32212zm-184.27-1.0856c-0.17922-0.28998 0.05804-0.52723 0.52723-0.52723s0.70645 0.23725 0.52723 0.52723-0.41647 0.52723-0.52723 0.52723-0.34801-0.23725-0.52723-0.52723zm1.8453-0.50359c0-0.24093 0.37528-0.58207 0.83397-0.75808 1.1595-0.44496 1.275-0.41249 1.275 0.35863 0 0.37325-0.47451 0.71439-1.0545 0.75808-0.57995 0.04371-1.0545-0.1177-1.0545-0.35863zm0.82188-2.4129c-1.0002-0.75649-0.99716-0.77408 0.13181-0.77408 1.3125 0 1.55-0.79014 0.37327-1.2417-0.84008-0.32237-0.52742-1.9217 0.37569-1.9217 0.30859 0 0.25735 0.33501-0.12096 0.79084-0.54836 0.66072-0.47223 0.79085 0.46267 0.79085 1.1247 0 1.3929 0.78178 0.79899 2.3294-0.3906 1.0179-0.70511 1.022-2.0215 0.02636zm2.0779-3.4102c-0.17922-0.28998-0.19174-0.74422-0.02783-1.0094 0.16391-0.26521-3e-5 -0.59143-0.36431-0.72494-0.51163-0.18752-0.52009-0.39397-0.03718-0.90743 0.97217-1.0337 2.249 0.47971 1.6868 1.9994-0.47665 1.2885-0.76665 1.4367-1.2575 0.64244zm171.88-2.6362c-0.17921-0.28998-0.0746-0.52723 0.2325-0.52723 0.30709 0 0.55835 0.23725 0.55835 0.52723s-0.10463 0.52723-0.2325 0.52723c-0.12788 0-0.37913-0.23725-0.55835-0.52723zm-170.79-1.0069c-0.16304-0.2638-0.16625-0.81893-0.0071-1.2336 0.15912-0.41468-0.07736-1.0583-0.52552-1.4302-1.0979-0.9112-1.0334-1.7407 0.10781-1.3856 0.50746 0.15791 1.2496 0.0818 1.6492-0.16914 0.83258-0.52281 0.35163-1.6286-0.70834-1.6286-0.45327 0-0.60952-0.38566-0.43172-1.0656 0.21894-0.83723 0.43432-0.93638 1.0051-0.46267 0.58467 0.48524 0.72645 0.34163 0.72645-0.7358 0-0.73628-0.29657-1.4584-0.65904-1.6046-0.3937-0.15886-0.28757-0.28268 0.26362-0.30755 0.50746-0.02289 0.92265 0.19563 0.92265 0.48561s0.35588 0.52723 0.79084 0.52723 0.79084 0.26263 0.79084 0.58364c0 0.321 0.3438 0.45171 0.764 0.29047 0.49632-0.19046 0.66676-0.03981 0.48647 0.43006-0.15264 0.39777-0.62739 0.85748-1.055 1.0216-0.4276 0.16408-0.66217 0.11179-0.52125-0.11622 0.34142-0.55242-0.5793-2.0074-1.0025-1.5842-0.18214 0.18214 0.0011 1.0057 0.40718 1.83 0.64612 1.3117 0.63016 1.7186-0.12782 3.2581-0.47639 0.96759-1.0877 1.7484-1.3585 1.7351-0.27079-0.01329-0.47351 0.44062-0.45048 1.0087 0.04356 1.0747-0.55333 1.3842-1.0669 0.55322zm-2.5421-0.36344c-0.30486-0.30487 0.02773-4.4926 0.38519-4.85 0.09664-0.09665 0.25898 1.0263 0.36074 2.4954 0.17431 2.5164-0.0082 3.0924-0.74594 2.3546zm177.29-2.3203c0-0.98416 0.14059-1.1248 0.63267-0.63268s0.49208 0.77327 0 1.2654c-0.49208 0.49208-0.63267 0.35149-0.63267-0.63268zm-4.3167-0.36016c0.38059-0.1523 0.83533-0.13357 1.0105 0.0416 0.17519 0.17519-0.13621 0.2998-0.69199 0.27691-0.6142-0.02531-0.73913-0.15023-0.31854-0.31853zm-0.9556-1.7488c-0.41817-0.25844-0.58529-0.64492-0.37137-0.85884s0.66573-0.11215 1.004 0.22616c0.7966 0.7966 0.35198 1.2412-0.63267 0.63268zm-174.78-2.6362c0.17922-0.28998 0.43047-0.52723 0.55835-0.52723s0.2325 0.23725 0.2325 0.52723-0.25126 0.52723-0.55835 0.52723-0.41172-0.23725-0.2325-0.52723zm3.7301 0.06385c-0.16336-0.26432 0.0575-0.61663 0.4908-0.7829s0.78782-0.08651 0.78782 0.17726c0 0.71469-0.93694 1.1585-1.2786 0.60564zm167.36-0.06385c-0.47518-0.30709-0.54021-0.51431-0.16292-0.51916 0.34536-0.0042 0.77455 0.22918 0.95377 0.51916 0.40454 0.65457 0.22203 0.65457-0.79085 0zm1.4499-1.4179c-1.1253-0.29407-1.2349-1.7455-0.13181-1.7455 0.43496 0 0.79085 0.26264 0.79085 0.58364s0.34379 0.45171 0.76399 0.29047c0.51063-0.19595 0.66677-0.03981 0.47082 0.47082-0.30335 0.79052-0.35767 0.80201-1.8938 0.40056zm-162.22-1.2809c0.29836-0.55748 0.41254-1.2238 0.25374-1.4808-0.1588-0.25694 0.15855-0.3502 0.70521-0.20724 1.2583 0.32906 0.89735 2.0743-0.50485 2.441-0.84206 0.2202-0.91246 0.10346-0.4541-0.753zm165.91-1.563c-0.50746-0.55579-0.92265-1.3664-0.92265-1.8014 0-0.64016 0.18347-0.60737 0.96292 0.17208 1.0622 1.0622 1.8567 2.7528 1.2613 2.6838-0.20838-0.02415-0.79407-0.49868-1.3015-1.0545zm-169.11-1.0416c0-0.30709 0.23725-0.41171 0.52723-0.2325 0.28998 0.17922 0.52723 0.43047 0.52723 0.55835s-0.23725 0.2325-0.52723 0.2325-0.52723-0.25126-0.52723-0.55835zm163.01-0.26413c-0.37985-0.43031-0.87525-0.66828-1.1009-0.52882-0.22564 0.13945-0.38936-0.50779-0.36382-1.4383 0.03-1.0907-0.18775-1.645-0.6126-1.56-0.36247 0.07249-0.65904-0.22407-0.65904-0.65904 0-1.5478 1.3475-0.75725 2.2466 1.3181 0.50251 1.1599 1.1262 2.1089 1.386 2.1089s0.60895 0.35588 0.77587 0.79084c0.38954 1.0151-0.76744 0.99324-1.6722-0.03163zm-157.32-0.88582c0.37457-0.45392 0.4932-0.92813 0.26362-1.0538s-0.12086-0.15618 0.24161-0.06782c0.38654 0.09423 0.65904-0.35417 0.65904-1.0845 0-0.68481 0.41519-1.4218 0.92265-1.6377 0.79243-0.33718 0.73661-0.44404-0.39542-0.75706-1.195-0.33044-1.1335-0.3876 0.65904-0.6124 2.297-0.28806 2.4997 0.27854 0.79085 2.2098-0.65245 0.73736-1.4405 1.7884-1.7512 2.3358-0.31069 0.54732-0.90383 1.1071-1.3181 1.244-0.62447 0.20639-0.6368 0.10789-0.07214-0.57638zm158.64-1.6672c-0.35814-0.9333 0.0656-1.3769 0.97998-1.026 0.38831 0.14901 0.57698 0.60717 0.41928 1.0181-0.36636 0.95474-1.0345 0.95852-1.3993 0.0079zm-163.71-0.84239c0-0.72494 0.11967-1.0215 0.26593-0.65904s0.14626 0.9556 0 1.3181c-0.14626 0.36247-0.26593 0.0659-0.26593-0.65904zm158.09-1.5817c0-0.57995-0.0178-1.2265-0.0395-1.4367-0.0217-0.21023 0.24853-0.47827 0.60062-0.59563 0.35208-0.11736 0.48703 0.03438 0.29987 0.33721s-0.088 0.6347 0.2204 0.7375c0.64455 0.21485 0.0992 2.0121-0.61053 2.0121-0.25895 0-0.47082-0.47451-0.47082-1.0545zm-150.36-2.4691c0.3806-0.1523 0.83533-0.13357 1.0105 0.04162 0.17519 0.1752-0.1362 0.2998-0.69199 0.27691-0.61419-0.0253-0.73912-0.15023-0.31854-0.31854zm152.2-0.16707c-0.17922-0.28998-0.0886-0.52723 0.20138-0.52723s0.67386 0.23725 0.85308 0.52723c0.17921 0.28998 0.0886 0.52723-0.20139 0.52723-0.28997 0-0.67386-0.23725-0.85307-0.52723zm-4.4815-1.6128c0-0.30709-0.21239-0.42708-0.47199-0.26664-0.25958 0.16044-0.59947-0.04052-0.75528-0.44658-0.31438-0.81924 1.5548-2.7945 2.1147-2.2346 0.19454 0.19454-0.10349 0.69959-0.66227 1.1223-0.92254 0.69794-0.93112 0.77017-0.0933 0.7854 0.94949 0.01726 1.3406 1.5985 0.39542 1.5985-0.28998 0-0.52723-0.25126-0.52723-0.55834zm4.0421-0.32037c-0.19332-0.19332-0.35149-0.59665-0.35149-0.89629 0-0.33036 0.24557-0.29924 0.62389 0.07908 0.34314 0.34314 0.50131 0.74647 0.35149 0.89629s-0.43057 0.11423-0.62389-0.07908zm-147.89-1.071c0.30805-0.37118 0.77046-0.54485 1.0276-0.38594 0.83722 0.51743 0.49272 1.2175-0.56009 1.1382-0.77221-0.05817-0.88839-0.24512-0.46749-0.75227zm145.43-0.68648c0-1.0277 0.55922-1.374 1.1939-0.7393 0.42237 0.42237-0.13043 1.7938-0.72306 1.7938-0.25895 0-0.47082-0.47451-0.47082-1.0545zm-4.0624-0.17175c0.2423-0.63142-0.0306-0.96363-0.98942-1.2043-0.72821-0.18277-1.1938-0.4625-1.0347-0.62163 0.39961-0.39961-1.3134-2.2202-2.089-2.2202-0.94036 0-4.0352-3.1273-3.6738-3.7122 0.17188-0.27811-0.19183-0.50565-0.80824-0.50565-1.2285 0-4.0526-1.9419-6.7088-4.613-0.93731-0.94256-1.9552-1.7137-2.2621-1.7137-0.7225 0-3.5509-2.0174-5.1142-3.6477-0.67249-0.70136-1.7516-1.334-2.3979-1.4059-0.64636-0.07192-1.3457-0.15052-1.5541-0.17469-0.20838-0.02416-0.25152-0.37582-0.0959-0.78145 0.15566-0.40563-0.0157-0.92215-0.38085-1.1478-0.37747-0.23329-0.75311-0.14257-0.87073 0.21028-0.11377 0.34132-0.44032 0.62058-0.72568 0.62058-0.28535 0-0.37713-0.44641-0.20397-0.99202 0.37061-1.1677-1.2473-2.0525-1.8802-1.0283-0.30806 0.49846-0.99932 0.39253-2.9419-0.4508-12.758-5.5385-24.369-7.7888-38.523-7.466-5.1284 0.11694-8.0437-0.0076-8.0483-0.34386-0.0042-0.3071-0.16901-0.28596-0.39463 0.05063-0.63031 0.94032-3.3927 1.4224-3.856 0.67288-0.32086-0.51916-0.5783-0.51209-1.2363 0.03398-0.45707 0.37933-0.83466 0.4827-0.8391 0.22971-0.0044-0.25299-0.23806-0.1041-0.51916 0.33087-0.39502 0.61125-0.51292 0.6282-0.51916 0.07465-0.0054-0.47919-0.40208-0.6173-1.1987-0.41736-0.65486 0.16436-1.5446 0.07509-1.9771-0.19839-0.43256-0.27347-0.62508-0.50085-0.42785-0.50529 0.19724-0.0044 0.1636-0.68806-0.07475-1.5192-0.23836-0.8311-0.22543-1.8394 0.02873-2.2407 0.34445-0.54388 0.46416-0.42762 0.47018 0.45662 0.0042 0.65245 0.14364 1.1863 0.30935 1.1863 0.51737 0 1.8076-1.4784 1.8076-2.0713 0-0.31069 0.38493-0.56489 0.8554-0.56489 0.70058 0 0.73661 0.14314 0.19906 0.79084-0.54387 0.65533-0.48718 0.78884 0.33087 0.77912 1.2199-0.01449 3.035-1.4405 3.8438-3.0199 0.57086-1.1147 0.68315-1.1367 1.8623-0.36407 1.1585 0.75909 1.2738 0.74897 1.502-0.13181 0.2265-0.8743 0.25226-0.87692 0.30831-0.031349 0.04086 0.61637 0.49871 0.92265 1.3792 0.92265 1.2132 0 1.3181 0.19124 1.3181 2.4037 0 1.5308 0.19924 2.2805 0.54868 2.0646 0.30177-0.1865 0.40441-0.79364 0.22808-1.3492-0.1846-0.58164-0.07208-1.0101 0.26528-1.0101 0.32223 0 0.51616-0.41519 0.43095-0.92265-0.09025-0.5375 0.17521-0.92265 0.63592-0.92265 1.1198 0 1.2921 2.1949 0.29212 3.7211-0.81736 1.2475-0.80239 1.2876 0.48036 1.2876 1.0588 0 1.2989-0.23764 1.1984-1.1863-0.0948-0.89581 0.11327-1.1454 0.84996-1.0192 0.66416 0.11374 0.86205-0.05455 0.61994-0.52723-0.19559-0.38186-0.0384-0.31074 0.34925 0.15806 0.88878 1.0748 1.8717 0.19719 1.7426-1.5558-0.0512-0.69538 0.37542-1.5294 1.0118-1.9779 0.94231-0.66405 0.98677-0.84906 0.30954-1.2878-0.70297-0.45544-0.70297-0.56907 0-1.0227 0.48962-0.31596 0.85605-0.32116 0.96204-0.01365 0.0942 0.27318 0.7466 0.11966 1.4499-0.34115 1.1948-0.78283 1.2828-0.77328 1.3412 0.14546 0.0344 0.54081 0.0239 1.2799-0.0231 1.6423-0.0471 0.36247 0.16207 0.65904 0.46475 0.65904 0.51755 0 0.79648-1.4896 0.57755-3.0845-0.0537-0.39157 0.15539-0.55551 0.46477-0.36431 0.30935 0.1912 0.56247 0.070661 0.56247-0.26786 0-0.40162 0.50384-0.49847 1.4499-0.27872 1.0757 0.24987 1.2458 0.19868 0.65903-0.19839-0.70297-0.47571-0.70297-0.53195 0-0.50619 0.91328 0.03347 3.1296 0.9167 2.4398 0.97227-0.25299 0.020383-0.13436 0.45225 0.26362 0.95971 0.65796 0.83897 0.63875 0.85607-0.21181 0.18848-0.51446-0.40379-0.98897-0.64105-1.0545-0.52723-1.2402 2.1555-1.3854 2.5795-0.88326 2.5795 0.30955 0 0.42632 0.22086 0.25949 0.4908-0.41225 0.66703 0.52891 1.1794 2.4051 1.3092 1.1538 0.079878 1.5238-0.10571 1.424-0.71426-0.19801-1.208 0.54918-2.1403 1.7153-2.1403 1.0325 0 1.2375-0.46589 1.0328-2.3479-0.0976-0.89714-5.2e-4 -0.93737 0.75248-0.31232 0.59975 0.49775 0.69618 0.88575 0.3149 1.267-0.30226 0.30227-0.54957 0.90335-0.54957 1.3357 0 0.60371 0.16543 0.55993 0.7128-0.18865 0.66983-0.91604 0.735-0.88642 1.0808 0.49125 0.33756 1.3449 0.42413 1.3893 1.0477 0.53647 0.63258-0.86511 0.7035-0.8677 1.0221-0.037407 0.20243 0.52752 0.12934 0.76054-0.17882 0.57008-0.28665-0.17717-0.52119-0.045477-0.52119 0.29264 0 0.34397 0.36735 0.47379 0.83397 0.29473 0.45868-0.17601 0.94719-0.32002 1.0856-0.32002 0.13839 0 0.10498-0.23725-0.0742-0.52723-0.17921-0.28998-0.1-0.52723 0.17609-0.52723 0.27607 0 0.64795 0.3805 0.82641 0.84555 0.18525 0.48277 0.66187 0.71607 1.1109 0.54378 0.47705-0.18306 0.7864 0.00282 0.7864 0.47253 0 0.42586 0.23725 0.7743 0.52723 0.7743s0.52723-0.35588 0.52723-0.79085c0-1.497 0.79099-0.7867 0.90291 0.81081 0.0642 0.91555-0.10495 1.4654-0.39542 1.2859-0.27912-0.1725-0.50749-0.06239-0.50749 0.2447 0 0.72083 0.8405 0.70996 2.2207-0.02872 0.97404-0.52129 1.0642-0.46204 0.80513 0.52883-0.2512 0.96058-7e-3 1.1614 1.7533 1.4429 1.4317 0.22894 2.1486 0.65336 2.3904 1.415 0.33503 1.0556 0.36692 1.0585 1.0694 0.09784 0.39822-0.5446 0.72404-0.7333 0.72404-0.41933s0.61976 0.7264 1.3772 0.91651c1.3561 0.34036 1.3622 0.36262 0.39543 1.4497-0.98028 1.1023-0.97881 1.1035 0.9341 0.75353 1.4601-0.26712 1.9893-0.15939 2.2242 0.45274 0.16953 0.44179 0.66233 0.80326 1.0951 0.80326s1.2706 0.51924 1.8618 1.1539c0.59125 0.63463 1.075 0.87188 1.075 0.52723s0.36988-0.62664 0.82196-0.62664 0.67533 0.23725 0.49611 0.52723c-0.17921 0.28998 0.0187 0.52723 0.43971 0.52723 0.42106 0 0.93503 0.41519 1.1422 0.92265 0.34573 0.84698 0.41217 0.83617 0.81019-0.13181 0.31747-0.77207 0.44351-0.38024 0.47064 1.4631 0.0348 2.3643 0.13332 2.5368 1.6188 2.8339 0.86993 0.17399 1.5817 0.55618 1.5817 0.84933 0 0.32928 0.9172 0.40727 2.3997 0.20407 1.6226-0.2224 2.2884-0.14887 2.0561 0.22703-0.18898 0.30577 0.0954 0.8885 0.63185 1.2949 0.76996 0.58332 0.80885 0.74688 0.1846 0.7764-0.43496 0.02057-0.0198 0.37254 0.92266 0.78216 0.94242 0.40962 1.7135 1.0075 1.7135 1.3286 0 0.32109 0.23725 0.43717 0.52723 0.25795 0.28997-0.17922 0.52723-0.06059 0.52723 0.26362 0 0.3242 0.25312 0.43302 0.56249 0.24182 0.33764-0.20868 0.4957 0.04233 0.39542 0.62792-0.12985 0.7582 0.1266 0.94769 1.151 0.85047 1.132-0.10743 1.1878-0.0479 0.39542 0.42162-0.50746 0.30069-0.92265 0.77218-0.92265 1.0477s0.41519 0.50513 0.92265 0.51014c0.50746 5e-3 1.4925 0.6097 2.189 1.3438s1.5741 1.2166 1.9503 1.0722c0.40828-0.15667 0.5763 0.01805 0.41687 0.43351-0.14688 0.38278 0.10245 0.83776 0.55408 1.0111 0.45164 0.17331 0.82115 0.67843 0.82115 1.1225s0.25126 0.80739 0.55835 0.80739 0.42707 0.21239 0.26664 0.47198c-0.29033 0.46975 1.1745 1.3579 1.9593 1.188 0.57507-0.12451-1.0567 2.9327-1.8157 3.4018-0.41822 0.25848-0.51147 0.09922-0.28597-0.48842zm-36.534-27.771c0-0.28998-0.25125-0.52723-0.55834-0.52723s-0.41172 0.23725-0.2325 0.52723 0.43047 0.52723 0.55835 0.52723c0.12787 0 0.23249-0.23725 0.23249-0.52723zm-53.417-3.7895c-0.1683-0.42059-0.29324-0.29566-0.31853 0.31854-0.02288 0.55579 0.10171 0.86718 0.27691 0.69199 0.17519-0.1752 0.19392-0.62993 0.0416-1.0105zm11.239-0.9556c0-0.28998-0.25126-0.52723-0.55835-0.52723s-0.41171 0.23725-0.2325 0.52723c0.17922 0.28998 0.43047 0.52723 0.55835 0.52723s0.2325-0.23725 0.2325-0.52723zm3.6906-1.0545c0-0.28998-0.25126-0.52723-0.55835-0.52723s-0.41172 0.23725-0.2325 0.52723 0.43047 0.52723 0.55835 0.52723 0.2325-0.23725 0.2325-0.52723zm-72.362 33.379c-0.50746-0.13261-0.92265-0.45352-0.92265-0.71314 0-0.25961-0.35857-0.33443-0.79682-0.16625-0.57017 0.2188-0.70409 0.06412-0.47082-0.54378 0.4094-1.0669 0.29388-1.0925 2.1083 0.46788 0.84254 0.72459 1.4133 1.2902 1.2683 1.2569-0.14499-0.03328-0.67881-0.16902-1.1863-0.30163zm5.1405-2.2727c0.17922-0.28998 0.43047-0.52723 0.55835-0.52723s0.2325 0.23725 0.2325 0.52723-0.25126 0.52723-0.55835 0.52723-0.41172-0.23725-0.2325-0.52723zm142.77-2.062c-0.51274-0.82102-0.47655-1.0662 0.19549-1.3241 0.58272-0.22361 0.73501-0.08266 0.51897 0.48034-0.16818 0.43825-0.076 0.79682 0.20491 0.79682 0.28087 0 0.51068 0.23725 0.51068 0.52723 0 0.85669-0.75302 0.60375-1.43-0.48034zm-129.85-5.1944c0-0.29234 0.35442-1.2111 0.7876-2.0417l0.7876-1.5102 0.0033 1.3853c0.0018 0.76193-0.35265 1.6807-0.78762 2.0417-0.44894 0.37259-0.79084 0.42655-0.79084 0.12482zm2.799-2.6603c-0.43407-0.26827-0.38797-0.66114 0.16654-1.4195 0.65833-0.90032 0.83831-0.93711 1.2731-0.26028 0.44921 0.69924 0.56506 0.69894 1.0256-0.0026 0.28554-0.43496 0.52279-1.0874 0.52723-1.4499 0.0044-0.36246 0.36395-0.65902 0.79892-0.65902 0.43496 0 0.79084-0.22981 0.79084-0.51068s0.3948-0.35918 0.87734-0.17402c0.58991 0.22637 0.75244 0.13459 0.49612-0.28016-0.20967-0.33926-0.11596-0.61683 0.20824-0.61683s0.44451-0.23454 0.26735-0.52119c-0.18471-0.29886 0.02694-0.38725 0.49611-0.20721 0.5303 0.20349 0.81823 0.01584 0.81823-0.53327 0-0.46599 0.17794-0.79685 0.39542-0.73524s0.93188-0.1854 1.5875-0.54891 1.9008-0.71048 2.7669-0.77105c0.86613-0.06057 1.5753-0.28806 1.5758-0.50555 5.27e-4 -0.21748 0.35693-0.39542 0.79189-0.39542 0.44691 0 0.79085-0.47211 0.79085-1.0856 0-0.59707 0.21612-0.952 0.48027-0.78875 1.0357 0.64009 0.11749 2.107-1.9722 3.1507-1.207 0.60287-4.1528 2.3447-6.5462 3.8708-2.3935 1.5261-4.8262 3.0682-5.4062 3.427s-1.1793 0.81772-1.332 1.0199c-0.15264 0.20218-0.54761 0.20067-0.87771-0.0033zm19.223-11.261c0.30637-0.30637 0.86825-0.45331 1.2486-0.32652 0.39487 0.13162 0.15588 0.37061-0.55704 0.55704-0.87697 0.22933-1.0828 0.16072-0.69157-0.23052zm-1.196-0.96565c-0.17922-0.28998-0.07459-0.52723 0.2325-0.52723s0.55835 0.23725 0.55835 0.52723-0.10462 0.52723-0.2325 0.52723-0.37913-0.23725-0.55835-0.52723zm14.306-4.0588c-0.16372-0.16372-0.06041-0.74098 0.22957-1.2828 0.66583-1.2441 0.05035-1.2867-0.90292-0.06249-0.66699 0.85656-0.69279 0.84712-0.3602-0.13181 0.19705-0.57995 0.61282-1.2288 0.92395-1.4418 0.38024-0.26037 0.34964-0.39-0.09335-0.39542-0.36247-0.0044-0.65904-0.37796-0.65904-0.83003 0-0.45208-0.23725-0.67533-0.52723-0.49612-0.28998 0.17922-0.52723 0.0064-0.52723-0.38397 0-0.41041 0.66716-0.76065 1.5817-0.83034 1.8018-0.13729 1.987 0.23686 0.65904 1.331-0.87872 0.724-0.87872 0.74639 0 0.47009 0.53102-0.16697 0.92608-0.01739 0.93072 0.35238 0.0056 0.44896 0.14502 0.42635 0.46272-0.07508 0.31649-0.49952 0.52095-0.14954 0.67287 1.1517 0.17859 1.5298 0.0083 1.9649-0.93734 2.3958-0.63556 0.28958-1.2895 0.39256-1.4532 0.22885zm62.406-3.3224c0-0.57995 0.21504-1.0545 0.47787-1.0545s0.35378 0.47451 0.20212 1.0545c-0.15166 0.57995-0.3667 1.0545-0.47787 1.0545s-0.20212-0.47451-0.20212-1.0545zm-4.1762-0.30755c0.0253-0.61419 0.15023-0.73912 0.31853-0.31854 0.1523 0.38059 0.13357 0.83533-0.0416 1.0105-0.17519 0.17519-0.2998-0.1362-0.27691-0.69199zm1.782-2.3637c-0.19114-0.30927-0.23445-0.67538-0.0962-0.81358 0.1382-0.1382 0.39177 0.11484 0.56348 0.56231 0.3565 0.92904 0.0527 1.0925-0.46723 0.25128zm-51.869-1.3269c0.02531-0.61419 0.15023-0.73912 0.31853-0.31854 0.1523 0.38059 0.13357 0.83533-0.0416 1.0105-0.1752 0.17519-0.2998-0.1362-0.27691-0.69199zm-10.845-0.22828c0.18214-0.29471 0.55202-0.39933 0.82196-0.2325 0.73129 0.45196 0.59493 0.76833-0.33116 0.76833-0.45208 0-0.67294-0.24112-0.4908-0.53583zm33.179-7.0828c-0.98737-0.73768-0.98134-0.75402 0.17106-0.46359 0.65697 0.16557 1.3234 0.50965 1.481 0.76462 0.44594 0.72154-0.51862 0.54579-1.6521-0.30103z" fill="#ededf3" stroke-width=".52723"/>
 <path d="m113.53 153.03c14.083-5.0244 22.176-14.436 23.218-27.003 0.5207-6.2792-0.0329-9.2372-2.5746-13.754-4.4888-7.9762-11.195-11.895-32.168-18.797-9.9528-3.2754-18.938-6.6481-19.968-7.4948-3.3563-2.7608-2.2288-8.5977 1.9691-10.194 8.7256-3.3175 20.372-0.3191 26.519 6.8273 2.9134 3.387 3.911 3.7198 7.1026 2.3695 2.0423-0.86402 6.5768-2.2937 10.077-3.1771 7.9279-2.001 8.2065-4.7878 1.2869-12.872-8.0069-9.3542-20.157-14.716-34.763-15.341-10.652-0.45558-13.166-0.03351-20.519 3.445-17.068 8.0745-22.939 23.161-15.033 38.632 3.1012 6.0689 11.095 10.411 31.195 16.944 22.767 7.3997 27.303 11.467 20.081 18.003-2.3976 2.1698-5.4099 2.8524-12.588 2.8524-8.2843 0-10.124-0.55663-15.069-4.5594-4.5281-3.6649-8.2437-8.1242-8.9629-10.757-0.23572-0.86252-21.788 6.6255-21.708 7.542 0.04999 0.57006 0.09088 1.9523 0.09088 3.0716 0 2.973 11.195 15.204 17.46 19.076 2.9674 1.8339 7.8329 4.2055 10.812 5.2701 7.0787 2.5296 26.348 2.4809 33.54-0.0847z" fill="#bbe5ff" fill-opacity=".98431" stroke-width=".39616"/>
</svg>
