<svg fill="none" height="96" viewBox="0 0 96 96" width="96" xmlns="http://www.w3.org/2000/svg"><path d="m31.4047 85.7858c-.9365 0-1.6552-.3049-2.1561-.9147s-.7513-1.4265-.7513-2.45v-9.5064h-1.5354c-3.245 0-5.9782-.5771-8.1996-1.7314-2.2215-1.1543-3.9093-2.8421-5.0636-5.0635-1.1325-2.2214-1.6987-4.9329-1.6987-8.1343v-25.0236c0-3.2015.5662-5.9129 1.6987-8.1343 1.1543-2.2214 2.8421-3.9093 5.0636-5.0635 2.2214-1.1761 4.9546-1.7641 8.1996-1.7641h42.0762c3.245 0 5.9782.588 8.1997 1.7641 2.2214 1.1542 3.8983 2.8421 5.0308 5.0635 1.1543 2.2214 1.7314 4.9328 1.7314 8.1343v25.0236c0 3.2014-.5771 5.9129-1.7314 8.1343-1.1325 2.2214-2.8094 3.9092-5.0308 5.0635-2.2215 1.1543-4.9547 1.7314-8.1997 1.7314h-22.0835l-11.7931 10.7804c-.784.7187-1.4483 1.2414-1.9927 1.5681-.5227.3484-1.1107.5226-1.7641.5226zm.098-35.5099c1.3503 0 2.4937-.4683 3.4301-1.4048.9365-.9582 1.4048-2.1016 1.4048-3.4301s-.4683-2.461-1.4048-3.3974c-.9364-.9583-2.0798-1.4374-3.4301-1.4374-1.3285 0-2.4718.4791-3.4301 1.4374-.9365.9364-1.4047 2.0689-1.4047 3.3974s.4682 2.4719 1.4047 3.4301c.9583.9365 2.1016 1.4048 3.4301 1.4048zm16.53 0c1.3285 0 2.4609-.4683 3.3974-1.4048.9583-.9582 1.4374-2.1016 1.4374-3.4301s-.4791-2.461-1.4374-3.3974c-.9365-.9583-2.0689-1.4374-3.3974-1.4374-1.3503 0-2.5046.4791-3.4628 1.4374-.9365.9364-1.4047 2.0689-1.4047 3.3974s.4682 2.4719 1.4047 3.4301c.9582.9365 2.1125 1.4048 3.4628 1.4048zm16.4972 0c1.3285 0 2.461-.4683 3.3975-1.4048.9583-.9582 1.4374-2.1016 1.4374-3.4301s-.4791-2.461-1.4374-3.3974c-.9365-.9583-2.069-1.4374-3.3975-1.4374-1.3502 0-2.4936.4791-3.4301 1.4374-.9365.9364-1.4047 2.0689-1.4047 3.3974s.4682 2.4719 1.4047 3.4301c.9365.9365 2.0799 1.4048 3.4301 1.4048z" fill="#0b1215"/></svg>