<?xml version="1.0" encoding="UTF-8" standalone="no"?>
<!-- Created with Inkscape (http://www.inkscape.org/) -->

<svg
   width="19.564262mm"
   height="17.100855mm"
   viewBox="0 0 19.564262 17.100855"
   version="1.1"
   id="svg1045"
   inkscape:version="1.1 (c4e8f9e, 2021-05-24)"
   sodipodi:docname="favicon.svg"
   xmlns:inkscape="http://www.inkscape.org/namespaces/inkscape"
   xmlns:sodipodi="http://sodipodi.sourceforge.net/DTD/sodipodi-0.dtd"
   xmlns="http://www.w3.org/2000/svg"
   xmlns:svg="http://www.w3.org/2000/svg">
  <sodipodi:namedview
     id="namedview1047"
     pagecolor="#ffffff"
     bordercolor="#666666"
     borderopacity="1.0"
     inkscape:pageshadow="2"
     inkscape:pageopacity="0.0"
     inkscape:pagecheckerboard="0"
     inkscape:document-units="mm"
     showgrid="false"
     inkscape:zoom="0.77771465"
     inkscape:cx="10.929459"
     inkscape:cy="570.26057"
     inkscape:window-width="1312"
     inkscape:window-height="1081"
     inkscape:window-x="0"
     inkscape:window-y="25"
     inkscape:window-maximized="0"
     inkscape:current-layer="layer1" />
  <defs
     id="defs1042" />
  <g
     inkscape:label="Layer 1"
     inkscape:groupmode="layer"
     id="layer1"
     transform="translate(-0.42405564,-1.6557586)">
    <g
       id="SvgjsG1007"
       featurekey="symbolFeature-0"
       transform="matrix(0.07830062,0,0,0.07830062,-5.4593839,-5.4539377)"
       fill="#111111"
       style="fill:#5828c1;fill-opacity:1">
      <g
         id="g996"
         style="fill:#5828c1;fill-opacity:1">
        <path
           d="m 226,141.3 c 2,2.5 4,5 6.1,7.5 14.7,-11.3 30.2,-21.6 46.3,-30.7 l -2.1,-3.6 c -3.6,-6.2 -7.2,-12.3 -10.8,-18.5 l -0.9,-1.5 -0.1,-0.3 c -0.3,-0.6 -0.7,-1.2 -1.2,-1.7 -1,-1 -2.4,-1.6 -3.8,-1.6 -0.6,0 -1.2,0 -1.7,0 -2.7,0 -5.4,-0.1 -8.2,-0.1 -2.4,0 -4.9,0 -7.3,0 -1.6,0 -3.3,0 -4.9,0 H 237 c -1.2,8 -3.1,15.8 -6,23.3 -2.7,7 -6,13.8 -10.1,20.1 1.6,2.4 3.3,4.8 5.1,7.1 z"
           id="path960"
           style="fill:#5828c1;fill-opacity:1" />
        <path
           d="m 238,155.5 c 4.4,4.9 9,9.6 13.6,14.2 5,5 10.2,10 15.5,14.7 2.6,2.4 5.3,4.7 8,7 5.3,-5.4 10.8,-10.6 16.6,-15.6 4.5,-3.9 9,-7.7 13.7,-11.3 -7.5,-13 -15.1,-26 -22.5,-38.7 -1.8,1 -3.5,2 -5.2,3 -13.7,8.1 -27,17 -39.7,26.7 z"
           id="path962"
           style="fill:#5828c1;fill-opacity:1" />
        <path
           d="m 323.9,196.7 c -0.3,-0.6 -0.6,-1.2 -1,-1.8 l -0.4,-0.7 -0.9,-1.7 c -0.8,-1.4 -1.6,-2.9 -2.4,-4.3 -2,-3.5 -4.1,-7.2 -6.8,-12 -0.8,-1.3 -1.5,-2.7 -2.3,-4 -0.1,0 -0.1,0.1 -0.2,0.1 -9.7,7.6 -18.9,15.9 -27.6,24.6 0.7,0.5 1.3,1 2,1.6 8.9,6.8 18.1,13.2 27.8,19 0.8,0.5 1.7,1 2.5,1.5 3.1,-5.3 6.2,-10.6 9.3,-15.9 0.6,-1 1.1,-2 1.1,-3.3 -0.2,-1.1 -0.6,-2 -1.1,-3.1 z"
           id="path964"
           style="fill:#5828c1;fill-opacity:1" />
        <path
           d="m 209.9,147.7 c -7.6,7.5 -16.6,13.3 -26.6,17 -10.6,3.9 -21.9,5.4 -33.1,4.4 -1.6,2.8 -3.3,5.5 -5,8.3 -2.4,3.8 -4.8,7.5 -7.3,11.1 7,3.1 13.8,6.5 20.4,10.4 4.2,2.5 8.2,5.1 12.2,7.9 13.3,-15.4 27.8,-29.9 43.3,-43.2 3.7,-3.2 7.4,-6.3 11.2,-9.3 -3.4,-4 -6.7,-8.2 -9.8,-12.4 -1.6,2 -3.4,4 -5.3,5.8 z"
           id="path966"
           style="fill:#5828c1;fill-opacity:1" />
        <path
           d="m 240.1,232.7 c 7.9,-10.9 16.3,-21.4 25.4,-31.3 1.1,-1.2 2.3,-2.4 3.4,-3.6 -4.8,-4.1 -9.5,-8.2 -14.1,-12.6 -8.2,-7.8 -16.3,-15.8 -23.8,-24.2 0,0 0,0 0,0 -19.2,15.4 -37,32.6 -53.2,51.2 3.9,3.1 7.7,6.4 11.3,9.8 4.7,4.5 9.1,9.4 13.3,14.4 10.6,1 21.2,2.7 31.5,5.4 1.9,-3 4,-6.1 6.2,-9.1 z"
           id="path968"
           style="fill:#5828c1;fill-opacity:1" />
        <path
           d="m 144.2,240.5 c 4.9,-7 10,-13.8 15.4,-20.5 1.7,-2.1 3.4,-4.2 5.1,-6.3 -10,-7 -20.8,-12.9 -32,-17.7 -3.4,4.7 -7,9.2 -10.7,13.7 -7.9,9.5 -16.6,18.4 -26,26.5 3.6,6.2 7.1,12.5 10.5,18.6 l 0.4,0.7 c 3.2,-1.9 6.5,-3.6 9.8,-5.2 8.8,-4.2 18.1,-7.5 27.5,-9.8 z"
           id="path970"
           style="fill:#5828c1;fill-opacity:1" />
        <path
           d="m 157.1,237.9 c 9.3,-1.5 18.8,-2.2 28.3,-2.2 1.5,0 2.9,0 4.4,0.1 -1.3,-1.4 -2.6,-2.8 -3.9,-4.1 -4.4,-4.5 -9,-8.6 -13.9,-12.5 -3.2,3.8 -6.3,7.7 -9.4,11.6 -1.9,2.3 -3.7,4.7 -5.5,7.1 z"
           id="path972"
           style="fill:#5828c1;fill-opacity:1" />
        <path
           d="m 215.7,272 c -0.8,-1.3 -1.5,-2.7 -2.3,-4 -4.4,-7.3 -9.1,-14.3 -14.3,-21.1 -0.5,-0.6 -0.9,-1.2 -1.4,-1.8 -4.1,-0.3 -8.2,-0.4 -12.3,-0.4 -7.8,0 -15.6,0.5 -23.3,1.5 -4.2,0.6 -8.4,1.4 -12.6,2.3 -5.2,7.6 -10.1,15.3 -14.8,23.2 -3.2,5.4 -6.3,11 -9.3,16.5 2,3.5 3.9,7 5.9,10.5 0,0.1 0.1,0.1 0.1,0.2 l 0.7,1.2 c 0.3,0.6 0.7,1.2 1,1.8 l 0.5,0.9 c 0.4,0.8 0.9,1.6 1.4,2.4 l 0.4,0.7 c 0.6,1.1 1.7,2 3,2.3 0.6,0.2 1.3,0.2 1.9,0.2 h 0.6 0.3 0.3 c 3.3,0 6.7,0.1 10,0.1 l 4.7,0.1 c 9.9,0.1 19.9,0.2 29.6,0.2 h 1.6 c 3.7,0 7.4,0 11.2,0.1 0.7,-2 1.4,-4 2.2,-6 3.1,-7.8 6.9,-15.2 10.6,-22.7 1.5,-2.7 2.9,-5.5 4.3,-8.2 z"
           id="path974"
           style="fill:#5828c1;fill-opacity:1" />
        <path
           d="m 125.8,256 c -5,2.1 -9.8,4.6 -14.4,7.3 l 4.7,8.3 c 1.4,2.5 2.8,4.9 4.2,7.4 5,-9.2 10.4,-18.2 16.1,-26.9 -3.6,1.1 -7.1,2.4 -10.6,3.9 z"
           id="path976"
           style="fill:#5828c1;fill-opacity:1" />
        <path
           d="m 213.4,251.3 c 2.6,3.8 5,7.6 7.4,11.5 2.5,-4.4 5.1,-8.7 7.7,-12.9 -6.1,-1.5 -12.3,-2.7 -18.5,-3.5 0,0 -0.1,0 -0.1,0 1.2,1.6 2.4,3.2 3.5,4.9 z"
           id="path978"
           style="fill:#5828c1;fill-opacity:1" />
        <path
           d="m 275.9,203.6 c -7.6,8 -14.8,16.4 -21.6,25.2 -3.9,5.1 -7.7,10.4 -11.4,15.7 10.2,3.1 20.3,7 30,11.5 5.3,2.5 10.6,5.1 15.7,8 0.9,-1.5 1.8,-3.1 2.6,-4.6 l 1,-1.8 c 5.3,-9.2 10.5,-18.4 15.6,-27.1 0.7,-1.2 1.3,-2.3 2,-3.5 -1.1,-0.6 -2.2,-1.3 -3.3,-1.9 -10.5,-6.6 -20.8,-13.8 -30.6,-21.5 z"
           id="path980"
           style="fill:#5828c1;fill-opacity:1" />
        <path
           d="m 261.8,260.8 c -7.9,-3.3 -16,-6.2 -24.2,-8.6 -3,4.7 -5.9,9.4 -8.6,14.2 -1,1.8 -2,3.6 -3,5.4 0.7,1.4 1.5,2.7 2.2,4.1 1.4,2.6 2.8,5.3 4.1,8 2.6,5.8 4.7,11.9 6.6,17.9 0.8,2.4 1.5,4.9 2.3,7.3 3.1,0 6.1,0 9.2,0 3,0 6.1,0 9.1,0 2,0 4,-1.1 5,-2.9 2.4,-4.1 4.7,-8.2 7.1,-12.2 l 1.1,-2 c 1.2,-2.1 2.5,-4.2 3.7,-6.4 l 0.4,-0.7 c 0.3,-0.6 0.7,-1.2 1,-1.8 0.2,-0.3 0.3,-0.6 0.4,-0.9 1.6,-3 3.3,-6 4.9,-8.9 l 1,-1.7 c -0.1,-0.1 -0.3,-0.1 -0.4,-0.2 -7,-3.8 -14.4,-7.4 -21.9,-10.6 z"
           id="path982"
           style="fill:#5828c1;fill-opacity:1" />
        <path
           d="m 221,281.5 c -0.8,1.5 -1.5,3 -2.3,4.5 -2.8,5.7 -5.7,11.4 -8.3,17.3 -0.8,1.9 -1.5,3.8 -2.2,5.8 5.2,0 10.5,0 15.7,0.1 2.6,0 5.2,0 7.8,0 -2,-6.4 -3.9,-12.8 -6.4,-18.9 -1.3,-3.1 -2.8,-6 -4.3,-8.8 z"
           id="path984"
           style="fill:#5828c1;fill-opacity:1" />
        <path
           d="m 215.4,125.9 c 2.1,-3.5 3.9,-7.1 5.5,-10.8 3.2,-7.8 5.5,-16 6.9,-24.3 h -8.2 c -5.8,0 -11.7,0 -17.5,0 1,7 3.1,13.9 5.8,20.4 2.2,5.1 4.7,10 7.5,14.7 z"
           id="path986"
           style="fill:#5828c1;fill-opacity:1" />
        <path
           d="m 155.2,160.3 c 0,0 0,0.1 -0.1,0.1 3.6,0.1 7.2,-0.1 10.8,-0.5 5.9,-0.9 11.7,-2.4 17.2,-4.7 5,-2.2 9.7,-5 14.1,-8.2 4.7,-3.7 8.9,-8 12.7,-12.8 -0.2,-0.3 -0.4,-0.7 -0.7,-1 -3.1,-4.9 -5.9,-9.9 -8.3,-15.1 -2.4,-5.3 -4.5,-10.7 -5.9,-16.3 -0.9,-3.5 -1.6,-7.2 -2.1,-10.8 -6.1,0 -12.2,0 -18.3,0 -0.2,2 -0.5,4 -0.7,6 -0.3,3.2 -0.7,6.4 -1.2,9.7 -1.8,12.1 -4.9,24.1 -9.4,35.5 -2.3,6 -5,12.1 -8.1,18.1 z"
           id="path988"
           style="fill:#5828c1;fill-opacity:1" />
        <path
           d="m 129.4,154.8 c 5.2,2.1 10.5,3.7 16,4.6 0.4,-0.8 0.9,-1.6 1.3,-2.3 2.4,-4.5 4.6,-9.1 6.7,-13.8 5.4,-13 9.1,-26.5 11.1,-40.4 0.5,-3.6 0.9,-7.3 1.3,-10.9 0,-0.4 0.1,-0.7 0.1,-1.1 -9.3,0 -17.8,0 -25.9,-0.1 -1,0 -1.9,0.3 -2.8,0.7 -0.8,0.5 -1.5,1.1 -2,2 -0.3,0.7 -0.7,1.4 -1.1,2.1 -0.1,0.2 -0.3,0.5 -0.4,0.7 -0.5,0.9 -1,1.7 -1.4,2.6 l -0.3,0.6 c -1.1,1.9 -2.1,3.8 -3.2,5.7 -1.8,3.1 -3.5,6.1 -5.3,9.2 l -2,3.6 -5.9,10.3 c -2.7,4.7 -5.3,9.3 -8,14 0.1,0.1 0.2,0.1 0.3,0.2 6.4,4.9 13.8,9 21.5,12.3 z"
           id="path990"
           style="fill:#5828c1;fill-opacity:1" />
        <path
           d="m 129.4,185 c 3.2,-4.7 6.3,-9.4 9.3,-14.2 0.6,-1 1.3,-2.1 1.9,-3.1 -10.6,-2.3 -20.6,-6.7 -29.8,-12.3 -2.7,-1.6 -5.4,-3.4 -7.9,-5.3 -4.1,7.1 -8.1,14.2 -12.2,21.3 -0.4,0.7 -0.8,1.4 -1.2,2.1 1.8,0.4 3.6,0.8 5.4,1.2 11.7,2.6 23.3,6 34.5,10.3 z"
           id="path992"
           style="fill:#5828c1;fill-opacity:1" />
        <path
           d="m 120.9,196.7 c 1.1,-1.4 2.1,-2.7 3.1,-4.1 -12.8,-4.7 -25.9,-8.2 -39.2,-11 -3,5.2 -6.1,10.6 -9,15.9 -1.1,1.9 -0.8,4.3 0.7,5.8 l 0.3,0.3 0.1,0.1 c 0.4,0.6 0.7,1.1 1.1,1.6 0.3,0.4 0.6,0.9 1,1.4 1.5,2.5 2.9,5.1 4.4,7.6 l 3.1,5.4 c 1.6,2.8 3.3,5.7 4.9,8.6 0.6,-0.5 1.2,-1.1 1.8,-1.6 3.3,-3 6.6,-6.1 9.7,-9.3 6.4,-6.6 12.4,-13.5 18,-20.7 z"
           id="path994"
           style="fill:#5828c1;fill-opacity:1" />
      </g>
    </g>
  </g>
</svg>
