<svg xmlns="http://www.w3.org/2000/svg" width="47" height="47" fill="none" viewBox="0 0 47 47"><path fill="#5522FA" fill-rule="evenodd" d="m32.7984 36.4689c-.164.2386-.3097.3306-.4369.3666-.9358-1.1107-.9408-7.7396.0904-13.1684 1.9493 9.3693.8144 12.1222.3465 12.8018m5.6224-23.3553c-1.8313.4268-3.6945 1.5827-5.1726 3.0717-1.6288-5.7844-5.1676-14.52848-8.611-15.956387-1.0228-.425191-1.8263-.1791157-2.3168.102113-2.1569 1.227864-3.5656 5.301504-2.3343 12.965874-4.7617-8.70056-6.4223-8.68968-7.1873-8.69471-.7382.00168-1.3768.43859-1.7058 1.16844-.5189 1.14668-1.50991 4.71397.9609 12.38667-3.02657-4.1423-3.95563-4.6688-5.03368-4.6269-.38752.0176-1.11319.1824-1.61455 1.0956-.92153 1.6824-.79766 6.0146 2.02133 12.4277-1.27808-.9475-2.46159-1.505-3.46849-1.433-.724.0595-1.33333.447-1.67147 1.0647-1.14333 2.0941 1.3057 7.9974 4.22095 11.984 2.39881 3.281 7.22491 8.3306 14.21291 8.3306.9316 0 1.9017-.0904 2.9078-.2854.6938-.1339 1.1466-.8052 1.0119-1.4982-.1356-.6931-.8077-1.145-1.4982-1.0103-5.8054 1.1274-10.1862-2.0607-12.8395-4.9332-3.95645-4.2846-5.68819-9.4321-5.7903-11.0039.83197.3323 3.21321 1.7434 7.8753 7.7095.4201.539 1.1935.6512 1.7526.2503.5566-.4001.6981-1.1693.3206-1.7418-6.54613-9.9184-7.18057-15.9188-6.96546-17.9518 1.91922 1.9611 6.72106 9.1609 10.33856 14.5837.3791.5692 1.1391.7391 1.7233.3859.5842-.3541.7893-1.104.4629-1.7041-7.5162-13.8322-7.276-20.15145-6.8307-22.22049 1.1241 1.14082 4.1347 5.13239 10.4515 18.88759.2888.6244 1.0161.9106 1.648.6478.6353-.2612.9492-.9776.7123-1.6213-6.1276-16.70045-3.4651-22.34596-2.4499-22.93688 1.3208.04102 5.068 6.36867 7.3413 14.69418.1398.5165.2754 1.0203.4026 1.51-.3281.5934-.5834 1.2011-.7508 1.8079-1.2781 4.6152-2.4674 15.137-.0887 17.9618.5373.6386 1.2546.9475 2.0397.8697.9735-.0963 1.8054-.6094 2.4072-1.4832 2.2524-3.2743.9391-11.5137-.8596-18.716 1.2179-1.6898 3.184-3.1864 4.9584-3.599 1.109-.2595 1.9686-.0578 2.5553.5976 1.027 1.1517 2.8282 5.4781-2.6231 20.7264-.2386.6646.108 1.3953.7734 1.6338.6578.2344 1.3944-.1088 1.6329-.7734 4.3474-12.1589 5.0613-19.9932 2.1226-23.2876-1.2186-1.3668-3.0056-1.8573-5.042-1.386" clip-rule="evenodd"/></svg>
