<svg fill="none" height="28" viewBox="0 0 20 28" width="20" xmlns="http://www.w3.org/2000/svg"><path clip-rule="evenodd" d="m10.4689 2.09875c-.1481-.06583-.3044-.09875-.46904-.09875-.17007 0-.32643.03292-.46907.09875-.14265.06584-.2798.16459-.41147.29626l-6.19674 6.32841c-.20848.21396-.31272.47456-.31272.78179 0 .19751.04938.3813.14813.55139.09876.1701.23317.3072.40324.4115.16459.0987.34838.1481.55137.1481.30723 0 .57606-.1152.80648-.3457l5.48078-5.63709 5.48074 5.63709c.236.2305.5048.3457.8065.3457.2085 0 .395-.0494.5596-.1481.1646-.1043.2963-.2414.395-.4115.0988-.17009.1482-.35388.1482-.55139 0-.30723-.1043-.56783-.3128-.78179l-6.1967-6.32841c-.1317-.13716-.2688-.23591-.4115-.29626zm-.93811 23.80245c.14813.0659.30449.0988.46907.0988.17004 0 .32644-.0329.46904-.0988.1427-.0658.2798-.1646.4115-.2962l6.1967-6.3284c.2085-.214.3128-.4746.3128-.7818 0-.1975-.0494-.3813-.1482-.5514-.0987-.1701-.2331-.3072-.4032-.4115-.1646-.0987-.3484-.1481-.5514-.1481-.3072 0-.576.1152-.8065.3456l-5.48074 5.6372-5.48078-5.6372c-.23591-.2304-.50473-.3456-.80648-.3456-.20848 0-.39501.0494-.5596.1481-.16458.1043-.29625.2414-.39501.4115-.09875.1701-.14813.3539-.14813.5514 0 .3072.10424.5678.31272.7818l6.19674 6.3284c.13167.1371.26882.2359.41147.2962z" fill="#0b1215" fill-rule="evenodd"/></svg>
