<svg fill="none" height="20" viewBox="0 0 20 20" width="20" xmlns="http://www.w3.org/2000/svg"><path clip-rule="evenodd" d="m1.36677 10.8652c-.24451-.2382-.36677-.5266-.36677-.8652 0-.33855.12226-.62696.36677-.8652l6.15988-6.15047c.13166-.13166.26959-.22571.41379-.28213.13793-.0627.27899-.09405.4232-.09405.34482 0 .62382.10659.83699.31975.21316.21317.31975.47649.31975.78997 0 .16928-.03135.32602-.09405.47022-.06896.13793-.15674.26019-.26332.36677l-2.10658 2.12539-2.47229 2.27033 2.12432-.11672h11.09714c.3574 0 .6458.10972.8652.32915.2195.21317.3292.49217.3292.83699 0 .3511-.1097.6364-.3292.8558-.2194.2132-.5078.3198-.8652.3198h-11.09714l-2.13644-.1233 2.48441 2.2675 2.10658 2.1253c.10658.1066.19436.2289.26332.3668.0627.1379.09405.2947.09405.4702 0 .3135-.10659.5768-.31975.79-.21317.2132-.49217.3198-.83699.3198-.30094 0-.57367-.1223-.81819-.3668z" fill="#0b1215" fill-rule="evenodd"/></svg>
