<svg height="20" viewBox="0 0 20 20" width="20" xmlns="http://www.w3.org/2000/svg"><path d="m14.6638 10c0 .1782-.0356.3474-.1069.5078-.0653.1544-.1722.3029-.3207.4454l-6.85078 6.7083c-.23162.2257-.51373.3385-.84632.3385-.21381 0-.41277-.0535-.59688-.1604-.18412-.1069-.33259-.2494-.44544-.4276-.1069-.1781-.16035-.3801-.16035-.6058 0-.3266.12472-.6176.37416-.873l6.10241-5.9332-6.10241-5.93318c-.24944-.24945-.37416-.54047-.37416-.87306 0-.21974.05345-.4187.16035-.59688.11285-.18411.26132-.32962.44544-.43652.18411-.10691.38307-.16036.59688-.16036.33259 0 .6147.11284.84632.33853l6.85078 6.70824c.1425.14254.2494.29102.3207.44543.0713.15442.1069.32369.1069.5078z" fill="#0b1215"/></svg>
