<svg fill="none" height="200" viewBox="0 0 200 200" width="200" xmlns="http://www.w3.org/2000/svg"><path clip-rule="evenodd" d="m179.563 145.493c.053.343.1.632.148.969.147 1.164.289 2.327.289 3.539h-160c.1418-1.212.2895-2.375.4844-3.539.0473-.337.0945-.626.1419-.969.3426-2.032.7266-4.018 1.211-5.949.8271-3.391 1.8905-6.735 3.1489-9.979 1.0633-2.758 2.2745-5.417 3.6332-7.987 1.7369-3.338 3.6747-6.487 5.8546-9.535 2.6644-3.728 5.5652-7.213 8.8085-10.409 1.601-1.596 3.2965-3.1434 5.0394-4.5967 2.9539-2.4694 6.0495-4.6966 9.2929-6.7289l-.0473-.0532c-.8005-1.4031-1.6114-2.7944-2.4222-4.1856-.8108-1.3913-1.6217-2.7826-2.4222-4.1857-.4366-.7552-.8698-1.5069-1.3014-2.256-1.1451-1.9876-2.2798-3.9569-3.4425-5.9263-1.1107-1.9377-2.2745-3.9227-3.3852-5.8604-.2422-.4845-.4844-.9688-.6321-1.4533-.4372-1.4002-.4372-2.8062-.0945-4.1591.0945-.3427.1949-.6322.3367-.9688.1477-.3427.2895-.6322.4845-.9217.6394-1.0353 1.5215-1.8991 2.5698-2.5167.963-.5789 2.0323-.9216 3.1429-1.0161.3054-.0299.592-.0408.8834-.033.171.0044.3436.0155.5227.033.1199.0167.2466.0336.3774.0528.2364.0347.486.0774.7333.1421 1.3583.3529 2.5853 1.0917 3.5328 2.1268.3427.3899.6322.774.9216 1.2584.5566.966 1.1235 1.9436 1.6904 2.9213.5703.9837 1.1407 1.9674 1.7007 2.9392.4361.7543.8688 1.5052 1.3 2.2535 1.1455 1.9884 2.2807 3.9586 3.4439 5.9287.7976 1.4031 1.6085 2.7945 2.4193 4.1857.8108 1.3913 1.6216 2.7826 2.4192 4.1857.1477.2954.3427.5848.4844.8743.5574-.2036 1.1147-.4095 1.6708-.6149.3634-.1342.7262-.2682 1.0881-.4012 8.2548-2.8646 16.9202-4.369 25.6575-4.4545h.8272c10.114 0 19.75 1.8372 28.658 5.2283.243.0946.485.195.727.2896.099-.1477.185-.3075.271-.4679.082-.1542.165-.3089.261-.4537.828-1.4565 1.67-2.9003 2.512-4.3445.781-1.3383 1.562-2.6772 2.332-4.0269l4.744-8.1822c.558-.9731 1.129-1.9582 1.7-2.9434.566-.9763 1.132-1.9526 1.685-2.9171.242-.4314.579-.8685.922-1.2584.969-1.0634 2.18-1.7901 3.533-2.1268.333-.0994.719-.1469 1.099-.1936l.011-.0013c.485-.0473.922-.0473 1.406 0 1.117.0945 2.18.4372 3.149 1.0161 1.111.6263 1.985 1.5006 2.564 2.5167.195.2895.337.579.485.9217.147.2895.242.6261.336.9688.39 1.3529.343 2.8062-.094 4.1591-.148.5375-.337.9688-.632 1.4533-.557.9715-1.127 1.955-1.698 2.9384-.567.9779-1.134 1.9558-1.687 2.922-.567.9759-1.126 1.9457-1.684 2.9118-1.018 1.7654-2.029 3.518-3.06 5.2705-.8 1.4017-1.61 2.7915-2.42 4.1813-.812 1.3928-1.623 2.7855-2.425 4.19-.047.0532-.047.1005-.094.1477 3.533 2.1801 6.876 4.6495 10.019 7.361 1.454 1.2112 2.86 2.5171 4.213 3.8701 3.196 3.243 6.15 6.681 8.814 10.409 2.174 3.048 4.112 6.245 5.855 9.535 1.358 2.57 2.564 5.229 3.633 7.993 1.281 3.247 2.331 6.579 3.143 9.973.484 1.985.874 3.964 1.211 5.949zm-36.794-28.659c2.665 3.923 2.18 8.862-1.016 10.989-3.19 2.132-7.934.679-10.551-3.291-2.665-3.922-2.18-8.856 1.016-10.988 3.196-2.127 7.94-.68 10.551 3.29zm-74.5498-3.243c3.1961 2.133 3.6274 7.019 1.0161 10.989-2.6643 3.922-7.3611 5.423-10.5572 3.296-3.1901-2.133-3.6273-7.024-1.0161-10.988 2.6172-3.97 7.3611-5.424 10.5572-3.297z" fill="#0b1215" fill-rule="evenodd"/></svg>
