<svg fill="none" height="16" viewBox="0 0 16 16" width="16" xmlns="http://www.w3.org/2000/svg"><path clip-rule="evenodd" d="m13.3399.545736c.1669-.045212.3411-.057056.5125-.034853.1715.022202.3617.093787.5116.180023.2772.176096.5042.465874.5903.784564.0912.33734.0448.69713-.1288 1.00029l-6.85582 11.95434c-.17414.3037-.42032.5597-.71675.7454-.29644.1857-.634.2955-.98285.3195s-.69824-.0384-1.01727-.1818c-.31903-.1433-.59788-.3632-.81189-.6401l-3.16564-4.0978c-.1058-.1369-.18363-.2934-.22905-.4604-.04541-.1671-.057525-.34148-.03564-.51322.02188-.17175.07732-.33749.16317-.48778.08585-.15028.20041-.28216.33715-.38811.13674-.10594.29299-.18388.45981-.22936s.34095-.05761.51245-.0357.33701.07744.48709.1634c.15007.08597.28176.2007.38756.33763l2.70452 3.50144 6.47956-11.30119c.0861-.15016.2009-.281881.3378-.387623s.2933-.183438.4602-.228651z" fill="#fff" fill-rule="evenodd"/></svg>
