<svg fill="none" height="20" viewBox="0 0 20 20" width="20" xmlns="http://www.w3.org/2000/svg"><path clip-rule="evenodd" d="m18.6332 10.8652c.2445-.2382.3668-.5266.3668-.8652 0-.33855-.1223-.62696-.3668-.8652l-6.1598-6.15047c-.1317-.13166-.2696-.22571-.4138-.28213-.138-.0627-.279-.09405-.4232-.09405-.3449 0-.6239.10659-.837.31975-.2132.21317-.3198.47649-.3198.78997 0 .16928.0314.32602.0941.47022.0689.13793.1567.26019.2633.36677l2.1066 2.12539 2.4723 2.27033-2.1244-.11672h-11.09714c-.35737 0-.64577.10972-.86521.32915-.21943.21317-.32915.49217-.32915.83699 0 .3511.10972.6364.32915.8558.21944.2132.50784.3198.86521.3198h11.09714l2.1365-.1233-2.4844 2.2675-2.1066 2.1253c-.1066.1066-.1944.2289-.2633.3668-.0627.1379-.0941.2947-.0941.4702 0 .3135.1066.5768.3198.79.2131.2132.4921.3198.837.3198.3009 0 .5736-.1223.8181-.3668z" fill="#0b1215" fill-rule="evenodd"/></svg>
