<svg fill="none" height="200" viewBox="0 0 200 200" width="200" xmlns="http://www.w3.org/2000/svg"><path d="m160.917 56.4068c-.665.4748-17.566 9.78-17.566 30.5742.76 23.738 21.364 31.998 21.649 31.998-.38.475-3.133 11.3-11.204 22.694-6.457 9.78-13.578 19.749-24.498 19.749-10.349 0-14.052-6.551-26.016-6.551-12.8184 0-16.4265 6.551-26.3014 6.551-10.9194 0-18.6104-10.444-25.3519-20.129-8.8304-12.724-16.3315-32.758-16.6164-51.9382-.1899-10.1598 1.8041-20.1296 6.7415-28.6752 7.0264-11.8688 19.465-19.9397 33.0429-20.1296 10.4446-.3798 19.7498 7.1213 26.1113 7.1213 6.077 0 17.471-7.1213 30.479-7.1213 5.508 0 20.32 1.7092 29.53 15.8568zm-60.9583-17.8507c-1.899-9.3052 3.2283-18.6104 8.0713-24.4973 6.076-7.21631 15.761-12.0588 24.022-12.0588.57 9.3052-2.848 18.4205-8.925 25.067-5.318 7.1213-14.623 12.5335-23.1683 11.4891z" fill="#0b1215"/></svg>
