<?xml version="1.0" encoding="UTF-8" standalone="no"?>
<svg
   fill="none"
   height="87"
   viewBox="0 0 240 87"
   width="240"
   version="1.1"
   id="svg1"
   sodipodi:docname="ip-signature.svg"
   inkscape:version="1.3.2 (091e20e, 2023-11-25)"
   xmlns:inkscape="http://www.inkscape.org/namespaces/inkscape"
   xmlns:sodipodi="http://sodipodi.sourceforge.net/DTD/sodipodi-0.dtd"
   xmlns="http://www.w3.org/2000/svg"
   xmlns:svg="http://www.w3.org/2000/svg">
  <defs
     id="defs1" />
  <sodipodi:namedview
     id="namedview1"
     pagecolor="#ffffff"
     bordercolor="#666666"
     borderopacity="1.0"
     inkscape:showpageshadow="2"
     inkscape:pageopacity="0.0"
     inkscape:pagecheckerboard="0"
     inkscape:deskcolor="#d1d1d1"
     inkscape:zoom="2.3572674"
     inkscape:cx="196.41387"
     inkscape:cy="58.118142"
     inkscape:window-width="1392"
     inkscape:window-height="847"
     inkscape:window-x="0"
     inkscape:window-y="25"
     inkscape:window-maximized="0"
     inkscape:current-layer="svg1" />
  <g
     id="g1"
     transform="matrix(0.58165515,0,0,0.61376676,91.236158,28.579079)">
    <path
       d="m 117.08484,-40.751906 c 1.1094,1.089272 2.21766,2.179386 3.32705,3.268658 3.53688,2.534474 7.59245,2.924802 11.82177,3.602686 4.74275,1.245219 7.52975,4.064917 10.16103,8.099916 0.60878,0.892815 0.60878,0.892815 1.2299,1.804643 2.80901,6.718991 1.61243,13.809191 0.5244,20.773942 -0.14005,0.94568 -0.27995,1.89038 -0.42524,2.86461 -0.29698,1.98491 -0.5989,3.96908 -0.90479,5.95267 -0.46882,3.03608 -0.92069,6.07365 -1.36973,9.11265 -0.29148,1.93417 -0.58396,3.86819 -0.87743,5.80206 -0.13518,0.90597 -0.2705,1.81293 -0.40993,2.74759 -0.13203,0.84376 -0.26322,1.68866 -0.3992,2.55913 -0.11354,0.73934 -0.22623,1.47982 -0.34313,2.24192 -0.4499,2.10278 -1.16056,3.89804 -2.01509,5.86609 -0.3865,1.62693 -0.73219,3.26496 -1.04623,4.90768 -0.18595,0.96213 -0.37077,1.92343 -0.56097,2.91426 -0.19094,1.02306 -0.38202,2.04712 -0.57947,3.10056 -0.19687,1.04948 -0.39359,2.09797 -0.59613,3.17897 -1.2046,6.50268 -2.36949,13.01024 -3.40072,19.54366 -0.17759,1.06952 -0.17759,1.06952 -0.3594,2.16066 -0.59129,3.94494 -0.572,7.02297 0.64691,10.83364 3.67034,1.10764 4.93727,0.73724 8.48138,-0.95483 3.89909,-2.96277 4.54537,-5.05365 5.2341,-9.79996 0.0933,-0.896 0.18752,-1.79186 0.28376,-2.71472 0.67828,-4.99654 1.92231,-8.01789 4.94077,-12.031 1.13571,-0.84272 1.13571,-0.84272 4.06841,-0.59745 3.00256,0.6337 3.00256,0.6337 4.688,2.90511 -0.2924,6.60947 -1.61731,12.68897 -4.76181,18.50203 3.62905,2.54004 8.38083,2.68673 12.71326,2.89363 2.49665,-0.46224 2.49665,-0.46224 4.92019,-1.22948 5.53692,-1.63956 10.44373,-1.03118 16.05879,-0.11977 2.2276,0.35111 2.2276,0.35111 5.47299,0.21204 2.27847,-1.84916 2.27847,-1.84916 3.7001,-4.50657 0.47137,-0.66411 0.94161,-1.32738 1.42709,-2.01164 1.89741,-3.90417 2.81505,-7.97768 3.83407,-12.18277 0.32285,-1.29265 0.32285,-1.29265 0.65148,-2.61073 0.52647,-2.11469 1.04433,-4.23267 1.56006,-6.34996 -0.63849,0.27038 -1.276,0.5409 -1.93392,0.81953 -1.27417,0.5149 -1.27417,0.5149 -2.57513,1.03998 -0.83659,0.34517 -1.67318,0.69033 -2.53556,1.04584 -2.84483,0.7928 -4.67963,0.62217 -7.53682,-0.0102 0.0967,-0.65288 0.19338,-1.30576 0.29299,-1.97843 1.63523,-0.70707 3.27452,-1.40748 4.92916,-2.06822 6.57938,-2.61032 6.57938,-2.61032 10.80119,-7.99797 0.6382,-2.91698 1.06275,-5.67453 1.19499,-8.65633 1.30576,0.19337 2.61152,0.38674 3.95684,0.58598 -0.012,2.33342 -0.0239,4.66684 -0.0362,7.07097 3.48404,-0.12597 6.83614,-0.50095 10.27993,-1.0241 6.41278,-0.78908 12.40152,-0.21659 18.7842,0.59014 1.0893,0.12594 2.17747,0.25271 3.29843,0.38334 2.64712,0.31013 5.29362,0.63129 7.93837,0.96433 -0.0483,0.32644 -0.0967,0.65287 -0.14649,0.98921 -1.24362,-0.0123 -2.48822,-0.0248 -3.76931,-0.0366 -12.28646,-0.0484 -23.40577,1.17588 -35.28567,4.36192 -2.27066,16.76624 -2.27066,16.76624 0.11175,33.37645 8.71293,3.14735 15.50908,0.43164 23.61758,-3.0157 6.30072,-2.54443 10.82053,-2.64034 17.41582,-1.01665 0.13307,1.3541 0.26614,2.7082 0.40324,4.10334 -1.02244,-0.0382 -1.02244,-0.0382 -2.06609,-0.0765 -7.64804,-0.0509 -12.98796,1.80785 -19.87931,4.91381 -7.42182,3.02236 -14.66857,3.34018 -22.34863,0.73398 -3.75648,-3.91858 -4.25085,-7.70687 -5.16655,-12.896 -2.26687,1.68207 -3.29329,3.02924 -4.83581,5.3493 -1.54252,2.32006 -2.57008,3.66807 -4.83581,5.34929 -2.26496,-0.18075 -4.52354,-0.44548 -6.77612,-0.75076 -5.64557,-0.64399 -9.80357,-0.2812 -15.27311,1.59276 -6.49993,2.20357 -11.99644,2.49855 -18.54469,0.22272 -2.58845,-1.93507 -2.58845,-1.93507 -4.50658,-3.70011 -0.60643,0.47024 -1.213,0.94146 -1.83775,1.42617 -1.20766,0.919 -1.20766,0.919 -2.43946,1.85767 -1.1908,0.91442 -1.1908,0.91442 -2.4056,1.84753 -3.57459,2.39619 -5.80034,3.03604 -10.10851,2.87013 -4.18725,-1.07804 -5.44773,-1.99357 -7.82872,-5.58209 -4.599,-12.15486 1.16743,-27.52897 3.74846,-39.81744 0.13761,-0.66299 0.27507,-1.325 0.4166,-2.00763 2.55323,-12.21676 2.55323,-12.21676 4.5886,-16.93651 2.42821,-5.87062 3.11012,-12.2364 4.01629,-18.48507 0.32008,-2.18872 0.66758,-4.37136 1.01635,-6.55583 1.34161,-8.786255 2.19989,-16.424931 -1.88986,-24.687192 -3.5405,-3.233548 -6.79041,-3.425714 -11.46298,-3.65671 0.27211,1.541494 0.27211,1.541494 0.54973,3.114129 -0.73065,9.363987 -1.88435,17.523001 -7.76569,25.133523 -0.62316,0.80843 -1.24532,1.61701 -1.88712,2.44897 -7.78946,9.49129 -16.08622,16.47622 -27.78772,20.4509 0.48429,8.45718 1.55679,16.82659 2.64556,25.22267 0.0948,0.73178 0.1895,1.46456 0.28703,2.21899 1.59821,17.05209 1.59821,17.05209 5.33872,33.63192 0.59835,1.90521 0.59835,1.90521 0.15887,4.87285 0.65288,0.0967 1.30576,0.19337 1.97843,0.29299 -0.0967,0.65288 -0.19338,1.30575 -0.29299,1.97842 -1.6322,-0.24172 -3.2644,-0.48343 -4.94606,-0.73247 -3.57491,-7.9434 -4.79394,-15.92408 -5.91188,-24.50543 -0.28072,-2.07046 -0.56554,-4.14052 -0.8512,-6.21171 -0.18843,-1.36938 -0.37657,-2.74074 -0.56188,-4.11066 -0.89691,-6.56522 -1.96737,-13.09852 -3.13561,-19.62002 -0.64733,-3.79983 -0.95171,-7.02117 -0.0945,-10.80239 -0.65347,-0.0381 -1.30792,-0.0764 -1.98146,-0.11552 -4.5253,-0.43361 -7.39959,-1.01191 -11.24942,-3.54926 -2.29659,-3.14133 -2.09678,-5.95137 -1.78022,-9.74088 0.97217,-5.16531 2.41444,-7.76407 6.06102,-11.48601 5.65508,-6.205516 5.97655,-13.161466 6.69786,-21.308696 0.63789,-6.498662 1.75727,-11.081117 6.38879,-15.863219 7.46307,-5.246304 21.67491,-8.71073 29.65746,-2.59738 z m -26.87275,7.685213 c -3.00391,3.491614 -3.53862,5.72336 -4.24305,10.302568 -0.18275,1.13851 -0.36566,2.278009 -0.55468,3.451984 -0.4824,3.202885 -0.4824,3.202885 1.3183,6.327386 0.63127,-0.542375 1.26352,-1.084603 1.9134,-1.643429 8.84061,-7.469487 17.68636,-13.512836 28.31117,-18.142308 -1.43056,-2.524808 -2.23094,-3.311547 -5.0385,-4.217613 -8.19514,-1.223742 -14.95808,-1.346799 -21.70664,3.921412 z m 27.29487,3.410329 c -4.59203,1.989762 -8.86524,4.63227 -13.18898,7.144975 -1.10304,0.594829 -1.10304,0.594829 -2.22722,1.202702 -6.50374,3.690051 -14.6457,9.472688 -17.06284,16.743027 -0.16585,2.614909 0.0121,4.956239 0.35005,7.554779 0.0923,1.11051 0.18448,2.222 0.27888,3.36617 0.25974,2.99031 0.57246,5.96421 0.93083,8.94385 8.47231,-1.11892 13.63723,-4.51291 19.3759,-10.52509 0.55128,-0.55523 1.10271,-1.11145 1.67063,-1.68342 6.86095,-7.050984 10.55547,-12.45506 11.62275,-22.378771 0.16446,-1.294877 0.16446,-1.294877 0.3319,-2.616608 0.26521,-2.104857 0.5047,-4.213522 0.73924,-6.32292 -0.93097,-0.471469 -1.86195,-0.942938 -2.82114,-1.428694 z M 79.88218,-0.857471 c -3.54279,4.99387 -6.01529,8.93822 -6.30075,15.2414 0.22975,0.70122 0.45951,1.40245 0.69622,2.12492 2.28508,0.3384 4.57016,0.6768 6.92449,1.02546 0.4312,-6.20882 0.43916,-12.06483 -0.33075,-18.24529 -0.32644,-0.0483 -0.65288,-0.0967 -0.98921,-0.14649 z"
       fill="#141414"
       id="path2"
       style="fill:#000000" />
    <path
       id="path11"
       d="m -58.86602,62.795759 c 0.84272,1.13571 0.84272,1.13571 0.8199,3.84964 -1.17123,4.40697 -4.26574,7.97168 -8.9799,9.44048 0,0 5.11455,-7.9877 4.4599,-8.78354 -0.65466,-0.79585 -12.96797,5.17412 -14.0764,9.27484 -1.10843,4.10072 17.87883,6.00627 17.87883,6.00627 -4.72113,3.50318 -6.73756,3.60441 -12.48527,2.91294 -7.79932,-1.22072 -7.5576,-2.08944 -9.90342,-4.89839 -1.12397,-3.07281 -1.12397,-3.07281 -1.02975,-5.83884 4.9957,-8.51098 13.47012,-14.20395 23.31611,-11.9634 z m -33.61815,-2.83702 c 1.41526,-0.98615 4.66279,-2.8379 10.12711,2.52777 1.3328,2.91873 2.56303,5.58833 -0.0463,7.49795 -2.60932,1.90962 -2.26594,-5.53641 -5.03957,-5.35526 -4.33909,0.28339 4.68622,13.66845 3.95955,18.75599 -0.72668,5.08754 -2.52935,5.71755 -5.57023,5.77268 -5.20639,-0.37129 -15.39052,-8.21458 -13.5099,-11.93016 1.88063,-3.71558 11.85465,7.27668 12.9812,5.62017 1.12654,-1.65652 -1.79478,-7.96689 -3.46235,-11.67547 -1.15396,-4.64516 -0.85478,-10.22752 0.56047,-11.21367 z m -41.27195,-64.864327 c 4.75939,0.01337 7.56569,0.115576 11.17119,3.360771 2.24472,2.692891 4.29535,5.454086 6.30538,8.325516 0.59346,0.79148 1.18592,1.58281 1.79708,2.39814 4.97069,6.98958 8.01141,14.60822 10.66094,22.69764 0.21737,0.63469 0.43459,1.27037 0.65822,1.92418 4.71582,14.39009 3.24617,31.35178 -3.13501,45.09525 -3.75932,6.26487 -9.01531,13.134 -15.94823,15.96087 -5.71355,0.12232 -11.3387,-0.91897 -15.64657,-4.89595 -17.40369,-18.78621 -17.40369,-18.78621 -17.01102,-30.14119 0.58989,-3.5327 0.94722,-3.93873 3.86121,-6.44084 4.0924,-2.0496 8.61245,-3.15739 13.18648,-3.29178 2.18549,0.75835 2.18549,0.75835 3.81035,1.57519 -0.56072,0.1616 -1.12159,0.32419 -1.69916,0.49038 -6.22848,1.83132 -6.22848,1.83132 -11.34333,5.66539 -1.31846,2.61607 -1.31846,2.61607 -0.87896,5.93527 3.31646,7.76359 9.40295,18.37269 16.85435,22.71411 2.86471,0.95699 4.78348,1.10669 7.91369,1.17195 2.44169,-1.87958 2.44169,-1.87958 4.68932,-4.36008 0.67108,-0.69519 1.34231,-1.39137 2.03372,-2.10781 8.15907,-10.49902 8.40893,-23.76352 9.76131,-36.58169 -1.02794,-0.2331 -2.0549,-0.46606 -3.1142,-0.70582 -8.73513,-3.12031 -14.5771,-14.19966 -18.5245,-22.31043 -1.37707,-3.00212 -2.6754,-6.02392 -3.93581,-9.07649 -0.33051,-0.77175 -0.65989,-1.54433 -1.00003,-2.33974 -2.05297,-5.33936 -1.76278,-9.531066 -0.46642,-15.062837 z m 4.17526,5.892308 c -1.18057,1.414259 4.72828,15.971589 11.2119,28.568949 l 9.37988,10.67371 c 0.52223,-4.38493 -1.38173,-6.53533 -3.00147,-13.28584 C -121.57313,8.498459 -128.02944,1.163277 -129.58086,0.98672 Z M 34.436344,13.813685 c 4.80696,2.19043 6.03734,22.50927 4.53915,37.55121 -1.36754,12.25471 -2.14194,20.8339 -2.59528,27.33332 -0.43066,6.17426 2.44964,10.03778 5.54092,9.32822 9.13629,-12.9845 3.33281,-22.18585 8.72449,-22.4458 5.39168,-0.25994 -2.53822,8.57031 11.53586,17.82914 -20.04103,0.73138 -3.98786,-19.2386 -15.22059,6.70633 -6.92716,10.267445 -15.35805,0.47651 -15.28238,-2.41228 0.87184,-33.28419 4.65795,-66.64425 2.27043,-67.07796 -2.38752,-0.43373 -15.310281,64.659117 -15.638301,64.986597 -0.32801,0.32748 -5.06416,-0.31789 -5.06416,-0.31789 4.432,-8.82288 4.00606,-9.42058 9.47335,-26.77764 0.57071,-3.04828 5.09988,-28.41231 5.68839,-31.45795 0,0 1.221161,-15.435727 6.028121,-13.245297 z m -13.956411,7.602337 c 4.12026,-1.05874 0.14288,9.69831 -0.6237,14.64943 -0.12404,0.83079 -2.23718,5.22941 -4.00794,13.14918 -1.77077,7.91977 -2.55244,6.58071 -5.55568,26.69163 -0.15389,0.99822 -0.3069502,1.99758 -0.4643902,3.02662 -1.04739,5.16124 -0.0636,7.41923 0.9202702,9.67722 0.98383,2.25798 11.52623,-24.88424 11.52623,-24.88424 -1.2328,10.7615 -1.30117,20.71517 -8.15536,29.42706 -2.27141,1.68543 -2.34893,2.12906 -6.5422502,0.59143 -4.19331,-1.53764 -4.44932,-8.28463 -4.44932,-8.28463 -0.63599,0.63569 -1.27197,-0.0021 -1.928,0.652858 -7.24589,6.38743 -6.7401246,7.349377 -11.2114248,7.581867 -3.90111,-0.39576 -6.00455,-0.85485 -8.88368,-3.6053 -1.10196,-2.37506 -2.0075,-1.60464 -1.56802,-4.57228 -1.6811,0.5254 -3.826231,4.431699 -5.503561,4.965739 -1.40307,0.44324 -1.40307,0.44324 -2.83376,0.89553 -2.74737,0.89923 -1.75643,-0.51657 -4.05269,0.91347 -2.45968,1.22287 -4.54945,2.57703 -7.20505,2.04425 -3.89791,-0.77235 -6.93111,-1.02846 -10.87663,-0.78988 -2.56169,-12.25954 -0.0127,-24.856086 0.382813,-37.315566 0.10762,-3.58693 -0.09891,-8.346265 2.94813,-10.241128 3.550199,-2.20776 2.736246,2.883713 3.753243,6.706024 -0.021,2.25121 -0.530393,2.25121 -0.836123,5.1962 -0.58529,7.10592 -2.669733,14.01724 -2.072233,21.10928 0.30454,-0.47956 0.60824,-0.96026 0.92205,-1.45462 2.79624,-4.22596 5.35216,-7.58679 9.88528,-10.08668 4.07888,-0.23804 4.54093,1.21609 7.59904,3.92532 2.29737,4.75383 2.27912,7.51823 1.08488,12.52429 l 6.694361,-4.473989 c 0.0902,-0.76605 0.18039,-1.5321 0.27297,-2.32105 0.12913,-0.99482 0.25825,-1.98964 0.39079,-3.01428 0.12345,-0.9906 0.24675,-1.98021 0.3736,-3.00064 0.57408,-2.54536 0.57408,-2.54536 2.84549,-4.23079 3.50795,0.20409 3.50795,0.20409 6.9244802,1.02545 1.91767,4.06175 1.61507,5.87296 0.51348,10.18511 -1.5287802,1.49012 -3.0899202,2.94613 -4.6893102,4.36008 -0.80548,2.57882 -0.80548,2.57882 -0.73247,4.94606 0.84628,1.35054 0.84628,1.35054 2.93386,1.95084 3.8296002,-0.11119 5.7152348,-3.180297 8.3923548,-5.823637 7.57972,-8.471 8.50694,-15.459088 9.77417,-22.371028 1.26723,-6.91194 3.18813,-12.77622 5.2937702,-20.96777 2.10564,-8.19156 4.64006,-17.69869 8.76033,-18.75743 z m -57.734486,53.058774 c -1.85781,1.42168 -7.1552,8.0634 -8.09302,11.20765 0,0 10.37783,1.58647 10.76715,-0.211 1.08471,-5.00802 3.22432,-8.06498 1.23278,-10.64419 -1.99154,-2.57921 -2.0491,-1.77414 -3.90691,-0.35246 z"
       style="fill:#000000;fill-opacity:1"
       sodipodi:nodetypes="ccczzccccccczzzczzczccccccccccccccccccccccccccczccczssczccsssccczszscczccsccccccccccccscccccccccccccccccssszcczzc" />
  </g>
</svg>
